<svg xmlns="http://www.w3.org/2000/svg" version="1.1" viewBox="-5.0 -10.0 110.0 120.0">
 <path d="m34.988 3.5h35.891c0.82812 0 1.5 0.67188 1.5 1.5v78.184c0 0.82812-0.67188 1.5-1.5 1.5h-53.578c-0.82812 0-1.5-0.67188-1.5-1.5v-60.5c0-0.41797 0.16797-0.78906 0.4375-1.0625l17.684-17.684c0.28125-0.28125 0.66406-0.4375 1.0625-0.4375zm34.391 3h-7.4531v13.75c0 0.82812-0.67188 1.5-1.5 1.5-0.39844 0-0.75781-0.15625-1.0273-0.40625l-4.6484-4.0977-4.6875 4.1328c-0.62109 0.54688-1.5703 0.48438-2.1133-0.13672-0.25-0.28516-0.37109-0.64063-0.37109-0.98828v-13.75h-11.082v16.188c0 0.82812-0.67188 1.5-1.5 1.5h-16.188v57.5h50.578v-75.184zm-10.453 0h-8.3516v10.43l3.1758-2.7969c0.55859-0.5 1.4141-0.51562 1.9922-0.011718l3.1875 2.8086v-10.43zm-25.438 2.1211-12.566 12.566h12.566zm-9.7773 23.453c-0.82813 0-1.5-0.67188-1.5-1.5s0.67187-1.5 1.5-1.5h40.758c0.82812 0 1.5 0.67188 1.5 1.5s-0.67188 1.5-1.5 1.5zm0 11.09c-0.82813 0-1.5-0.67187-1.5-1.5 0-0.82812 0.67187-1.5 1.5-1.5h40.758c0.82812 0 1.5 0.67188 1.5 1.5 0 0.82813-0.67188 1.5-1.5 1.5zm0 11.09c-0.82813 0-1.5-0.67188-1.5-1.5s0.67187-1.5 1.5-1.5h23.578c0.82813 0 1.5 0.67188 1.5 1.5s-0.67187 1.5-1.5 1.5zm0 11.09c-0.82813 0-1.5-0.67188-1.5-1.5s0.67187-1.5 1.5-1.5h23.578c0.82813 0 1.5 0.67188 1.5 1.5s-0.67187 1.5-1.5 1.5zm0 8.0898h23.578v3h-23.578zm38.523 3h-7.1992c-1.0273 0-1.9609-0.42188-2.6406-1.0938l-0.097656-0.10547c-0.62109-0.66406-1-1.5586-1-2.5312v-17.711c0-1.0273 0.42188-1.9609 1.0938-2.6406 0.67578-0.67578 1.6094-1.0938 2.6406-1.0938h7.1992c1.0273 0 1.9609 0.42188 2.6328 1.1016 0.67969 0.67188 1.1016 1.6094 1.1016 2.6328v17.711c0 1.0234-0.42188 1.957-1.0938 2.6328-0.68359 0.68359-1.6172 1.1016-2.6406 1.1016zm-7.1992-3h7.1992c0.20312 0 0.38672-0.082032 0.51562-0.21094 0.13672-0.13672 0.21484-0.32031 0.21484-0.52344v-17.711c0-0.19922-0.085938-0.38281-0.21484-0.51562-0.12891-0.13672-0.31641-0.21484-0.51562-0.21484h-7.1992c-0.19922 0-0.38281 0.085938-0.51562 0.21484-0.13281 0.13281-0.21484 0.31641-0.21484 0.51562v17.711c0 0.17969 0.066406 0.34375 0.17187 0.47266l0.046876 0.046875c0.13281 0.13281 0.31641 0.21484 0.51562 0.21484zm20.25-62.523c0-0.82812 0.67188-1.5 1.5-1.5s1.5 0.67188 1.5 1.5v78.184c0 0.82812-0.67188 1.5-1.5 1.5h-53.574c-0.82813 0-1.5-0.67188-1.5-1.5s0.67187-1.5 1.5-1.5h52.074zm5.9102 5.9062c0-0.82812 0.67188-1.5 1.5-1.5 0.82813 0 1.5 0.67188 1.5 1.5v78.184c0 0.82812-0.67187 1.5-1.5 1.5h-53.578c-0.82813 0-1.5-0.67188-1.5-1.5s0.67187-1.5 1.5-1.5h52.078z"/>
</svg>