<svg xmlns="http://www.w3.org/2000/svg" xmlns:xlink="http://www.w3.org/1999/xlink" xmlns:sketch="http://www.bohemiancoding.com/sketch/ns" id="canvas" viewBox="0 0 1 1"><rect x="0" y="0" width="1" height="1" style="stroke: #FFFFFF;"></rect><line class="gridLine" style="stroke: gray; stroke-width: 0.001;" x1="0" y1="0.9402074236180631" x2="1" y2="0.9402074236180631"></line><line class="gridLine" style="stroke: gray; stroke-width: 0.001;" x1="0" y1="0.8804148472361261" x2="1" y2="0.8804148472361261"></line><line class="gridLine" style="stroke: gray; stroke-width: 0.001;" x1="0" y1="0.8206222708541892" x2="1" y2="0.8206222708541892"></line><line class="gridLine" style="stroke: gray; stroke-width: 0.001;" x1="0" y1="0.7608296944722521" x2="1" y2="0.7608296944722521"></line><line class="gridLine" style="stroke: gray; stroke-width: 0.001;" x1="0" y1="0.7010371180903152" x2="1" y2="0.7010371180903152"></line><line class="gridLine" style="stroke: gray; stroke-width: 0.001;" x1="0" y1="0.6412445417083783" x2="1" y2="0.6412445417083783"></line><line class="gridLine" style="stroke: gray; stroke-width: 0.001;" x1="0" y1="0.5814519653264413" x2="1" y2="0.5814519653264413"></line><line class="gridLine" style="stroke: gray; stroke-width: 0.001;" x1="0" y1="0.5216593889445043" x2="1" y2="0.5216593889445043"></line><line class="gridLine" style="stroke: gray; stroke-width: 0.001;" x1="0" y1="0.46186681256256734" x2="1" y2="0.46186681256256734"></line><line class="gridLine" style="stroke: gray; stroke-width: 0.001;" x1="0" y1="0.40207423618063043" x2="1" y2="0.40207423618063043"></line><line class="gridLine" style="stroke: gray; stroke-width: 0.001;" x1="0" y1="0.3422816597986934" x2="1" y2="0.3422816597986934"></line><line class="gridLine" style="stroke: gray; stroke-width: 0.001;" x1="0" y1="0.2824890834167565" x2="1" y2="0.2824890834167565"></line><line class="gridLine" style="stroke: gray; stroke-width: 0.001;" x1="0" y1="0.22269650703481947" x2="1" y2="0.22269650703481947"></line><line class="gridLine" style="stroke: gray; stroke-width: 0.001;" x1="0" y1="0.16290393065288256" x2="1" y2="0.16290393065288256"></line><line class="gridLine" style="stroke: gray; stroke-width: 0.001;" x1="0" y1="0.10311135427094553" x2="1" y2="0.10311135427094553"></line><line class="gridLine" style="stroke: gray; stroke-width: 0.001;" x1="0" y1="0.04331877788900862" x2="1" y2="0.04331877788900862"></line><line class="gridLine" style="stroke: gray; stroke-width: 0.001;" x1="0.02005959650667002" y1="0" x2="0.02005959650667002" y2="1"></line><line class="gridLine" style="stroke: gray; stroke-width: 0.001;" x1="0.04011919301334004" y1="0" x2="0.04011919301334004" y2="1"></line><line class="gridLine" style="stroke: gray; stroke-width: 0.001;" x1="0.06017878952001006" y1="0" x2="0.06017878952001006" y2="1"></line><line class="gridLine" style="stroke: gray; stroke-width: 0.001;" x1="0.08023838602668008" y1="0" x2="0.08023838602668008" y2="1"></line><line class="gridLine" style="stroke: gray; stroke-width: 0.001;" x1="0.10029798253335011" y1="0" x2="0.10029798253335011" y2="1"></line><line class="gridLine" style="stroke: gray; stroke-width: 0.001;" x1="0.12035757904002012" y1="0" x2="0.12035757904002012" y2="1"></line><line class="gridLine" style="stroke: gray; stroke-width: 0.001;" x1="0.14041717554669014" y1="0" x2="0.14041717554669014" y2="1"></line><line class="gridLine" style="stroke: gray; stroke-width: 0.001;" x1="0.16047677205336017" y1="0" x2="0.16047677205336017" y2="1"></line><line class="gridLine" style="stroke: gray; stroke-width: 0.001;" x1="0.1805363685600302" y1="0" x2="0.1805363685600302" y2="1"></line><line class="gridLine" style="stroke: gray; stroke-width: 0.001;" x1="0.20059596506670022" y1="0" x2="0.20059596506670022" y2="1"></line><line class="gridLine" style="stroke: gray; stroke-width: 0.001;" x1="0.22065556157337024" y1="0" x2="0.22065556157337024" y2="1"></line><line class="gridLine" style="stroke: gray; stroke-width: 0.001;" x1="0.24071515808004024" y1="0" x2="0.24071515808004024" y2="1"></line><line class="gridLine" style="stroke: gray; stroke-width: 0.001;" x1="0.2607747545867103" y1="0" x2="0.2607747545867103" y2="1"></line><line class="gridLine" style="stroke: gray; stroke-width: 0.001;" x1="0.2808343510933803" y1="0" x2="0.2808343510933803" y2="1"></line><line class="gridLine" style="stroke: gray; stroke-width: 0.001;" x1="0.3008939476000503" y1="0" x2="0.3008939476000503" y2="1"></line><line class="gridLine" style="stroke: gray; stroke-width: 0.001;" x1="0.32095354410672033" y1="0" x2="0.32095354410672033" y2="1"></line><line class="gridLine" style="stroke: gray; stroke-width: 0.001;" x1="0.34101314061339033" y1="0" x2="0.34101314061339033" y2="1"></line><line class="gridLine" style="stroke: gray; stroke-width: 0.001;" x1="0.3610727371200604" y1="0" x2="0.3610727371200604" y2="1"></line><line class="gridLine" style="stroke: gray; stroke-width: 0.001;" x1="0.3811323336267304" y1="0" x2="0.3811323336267304" y2="1"></line><line class="gridLine" style="stroke: gray; stroke-width: 0.001;" x1="0.40119193013340043" y1="0" x2="0.40119193013340043" y2="1"></line><line class="gridLine" style="stroke: gray; stroke-width: 0.001;" x1="0.42125152664007043" y1="0" x2="0.42125152664007043" y2="1"></line><line class="gridLine" style="stroke: gray; stroke-width: 0.001;" x1="0.4413111231467405" y1="0" x2="0.4413111231467405" y2="1"></line><line class="gridLine" style="stroke: gray; stroke-width: 0.001;" x1="0.4613707196534105" y1="0" x2="0.4613707196534105" y2="1"></line><line class="gridLine" style="stroke: gray; stroke-width: 0.001;" x1="0.4814303161600805" y1="0" x2="0.4814303161600805" y2="1"></line><line class="gridLine" style="stroke: gray; stroke-width: 0.001;" x1="0.5014899126667505" y1="0" x2="0.5014899126667505" y2="1"></line><line class="gridLine" style="stroke: gray; stroke-width: 0.001;" x1="0.5215495091734206" y1="0" x2="0.5215495091734206" y2="1"></line><line class="gridLine" style="stroke: gray; stroke-width: 0.001;" x1="0.5416091056800906" y1="0" x2="0.5416091056800906" y2="1"></line><line class="gridLine" style="stroke: gray; stroke-width: 0.001;" x1="0.5616687021867606" y1="0" x2="0.5616687021867606" y2="1"></line><line class="gridLine" style="stroke: gray; stroke-width: 0.001;" x1="0.5817282986934306" y1="0" x2="0.5817282986934306" y2="1"></line><line class="gridLine" style="stroke: gray; stroke-width: 0.001;" x1="0.6017878952001006" y1="0" x2="0.6017878952001006" y2="1"></line><line class="gridLine" style="stroke: gray; stroke-width: 0.001;" x1="0.6218474917067707" y1="0" x2="0.6218474917067707" y2="1"></line><line class="gridLine" style="stroke: gray; stroke-width: 0.001;" x1="0.6419070882134407" y1="0" x2="0.6419070882134407" y2="1"></line><line class="gridLine" style="stroke: gray; stroke-width: 0.001;" x1="0.6619666847201107" y1="0" x2="0.6619666847201107" y2="1"></line><line class="gridLine" style="stroke: gray; stroke-width: 0.001;" x1="0.6820262812267807" y1="0" x2="0.6820262812267807" y2="1"></line><line class="gridLine" style="stroke: gray; stroke-width: 0.001;" x1="0.7020858777334508" y1="0" x2="0.7020858777334508" y2="1"></line><line class="gridLine" style="stroke: gray; stroke-width: 0.001;" x1="0.7221454742401208" y1="0" x2="0.7221454742401208" y2="1"></line><line class="gridLine" style="stroke: gray; stroke-width: 0.001;" x1="0.7422050707467908" y1="0" x2="0.7422050707467908" y2="1"></line><line class="gridLine" style="stroke: gray; stroke-width: 0.001;" x1="0.7622646672534608" y1="0" x2="0.7622646672534608" y2="1"></line><line class="gridLine" style="stroke: gray; stroke-width: 0.001;" x1="0.7823242637601308" y1="0" x2="0.7823242637601308" y2="1"></line><line class="gridLine" style="stroke: gray; stroke-width: 0.001;" x1="0.8023838602668009" y1="0" x2="0.8023838602668009" y2="1"></line><line class="gridLine" style="stroke: gray; stroke-width: 0.001;" x1="0.8224434567734709" y1="0" x2="0.8224434567734709" y2="1"></line><line class="gridLine" style="stroke: gray; stroke-width: 0.001;" x1="0.8425030532801409" y1="0" x2="0.8425030532801409" y2="1"></line><line class="gridLine" style="stroke: gray; stroke-width: 0.001;" x1="0.8625626497868109" y1="0" x2="0.8625626497868109" y2="1"></line><line class="gridLine" style="stroke: gray; stroke-width: 0.001;" x1="0.882622246293481" y1="0" x2="0.882622246293481" y2="1"></line><line class="gridLine" style="stroke: gray; stroke-width: 0.001;" x1="0.902681842800151" y1="0" x2="0.902681842800151" y2="1"></line><line class="gridLine" style="stroke: gray; stroke-width: 0.001;" x1="0.922741439306821" y1="0" x2="0.922741439306821" y2="1"></line><line class="gridLine" style="stroke: gray; stroke-width: 0.001;" x1="0.942801035813491" y1="0" x2="0.942801035813491" y2="1"></line><line class="gridLine" style="stroke: gray; stroke-width: 0.001;" x1="0.962860632320161" y1="0" x2="0.962860632320161" y2="1"></line><line class="gridLine" style="stroke: gray; stroke-width: 0.001;" x1="0.982920228826831" y1="0" x2="0.982920228826831" y2="1"></line><path style="stroke:blue;
        stroke-width:0.005;
        fill:none;" d="M 0 0.7010371180903152 L 0.00909090909090909 0.6742402939477887 L 0.01818181818181818 0.6480452163297394 L 0.02727272727272727 0.6224518852361676 L 0.03636363636363636 0.5974603006670728 L 0.04545454545454545 0.5730704626224552 L 0.05454545454545454 0.549282371102315 L 0.06363636363636363 0.5260960261066521 L 0.07272727272727272 0.5035114276354662 L 0.0818181818181818 0.4815285756887576 L 0.0909090909090909 0.46014747026652636 L 0.1 0.4393681113687722 L 0.10909090909090909 0.41919049899549554 L 0.11818181818181817 0.39961463314669576 L 0.12727272727272726 0.3806405138223735 L 0.13636363636363635 0.36226814102252847 L 0.14545454545454545 0.3444975147471605 L 0.1545454545454545 0.32732863499626996 L 0.1636363636363636 0.3107615017698565 L 0.17272727272727273 0.29479611506792036 L 0.1818181818181818 0.2794324748904614 L 0.1909090909090909 0.26467058123747966 L 0.2 0.2505104341089752 L 0.20909090909090908 0.2369520335049481 L 0.21818181818181817 0.22399537942539804 L 0.22727272727272724 0.2116404718703252 L 0.23636363636363633 0.19988731083972977 L 0.24545454545454545 0.18873589633361165 L 0.2545454545454545 0.17818622835197062 L 0.2636363636363636 0.1682383068948068 L 0.2727272727272727 0.15889213196212038 L 0.2818181818181818 0.15014770355391094 L 0.2909090909090909 0.14200502167017903 L 0.3 0.134464086310924 L 0.309090909090909 0.1275248974761467 L 0.3181818181818182 0.12118745516584606 L 0.3272727272727272 0.11545175938002294 L 0.3363636363636363 0.11031781011867703 L 0.34545454545454546 0.10578560738180864 L 0.3545454545454545 0.10185515116941724 L 0.3636363636363636 0.09852644148150325 L 0.37272727272727274 0.09579947831806623 L 0.3818181818181818 0.09367426167910631 L 0.3909090909090909 0.09215079156462402 L 0.4 0.09122906797461872 L 0.40909090909090906 0.09090909090909105 L 0.41818181818181815 0.09119086036804014 L 0.4272727272727272 0.09207437635146654 L 0.43636363636363634 0.09355963885937046 L 0.44545454545454544 0.09564664789175159 L 0.4545454545454545 0.09833540344860958 L 0.4636363636363636 0.10162590552994522 L 0.47272727272727266 0.10551815413575794 L 0.48181818181818176 0.11001214926604774 L 0.4909090909090909 0.11510789092081497 L 0.49999999999999994 0.1208053791000595 L 0.509090909090909 0.12710461380378113 L 0.5181818181818182 0.13400559503198006 L 0.5272727272727272 0.1415083227846563 L 0.5363636363636364 0.1496127970618094 L 0.5454545454545454 0.1583190178634405 L 0.5545454545454545 0.16762698518954777 L 0.5636363636363636 0.17753669904013314 L 0.5727272727272726 0.18804815941519548 L 0.5818181818181818 0.19916136631473524 L 0.5909090909090908 0.21087631973875187 L 0.6 0.2231930196872458 L 0.609090909090909 0.23611146616021705 L 0.618181818181818 0.24963165915766605 L 0.6272727272727272 0.26375359867959147 L 0.6363636363636364 0.2784772847259944 L 0.6454545454545454 0.293802717296875 L 0.6545454545454544 0.3097298963922318 L 0.6636363636363636 0.32625882201206735 L 0.6727272727272726 0.34338949415637854 L 0.6818181818181817 0.3611219128251679 L 0.6909090909090909 0.37945607801843484 L 0.7 0.3983919897361782 L 0.709090909090909 0.41792964797839927 L 0.7181818181818181 0.4380690527450979 L 0.7272727272727272 0.45881020403627315 L 0.7363636363636362 0.4801531018519247 L 0.7454545454545455 0.5020977461920555 L 0.7545454545454545 0.5246441370566626 L 0.7636363636363636 0.5477922744457464 L 0.7727272727272727 0.5715421583593081 L 0.7818181818181817 0.5958937887973472 L 0.7909090909090908 0.6208471657598631 L 0.8 0.6464022892468566 L 0.8090909090909091 0.6725591592583271 L 0.8181818181818181 0.6993177757942752 L 0.8272727272727272 0.7266781388546995 L 0.8363636363636363 0.7546402484396022 L 0.8454545454545453 0.783204104548982 L 0.8545454545454544 0.8123697071828381 L 0.8636363636363636 0.8421370563411725 L 0.8727272727272727 0.8725061520239836 L 0.8818181818181817 0.9034769942312715 L 0.8909090909090909 0.9350495829630384 L 0.8999999999999999 0.9672239182192809 L 0.909090909090909 1.0000000000000009"></path><path style="stroke:red;
        stroke-width:0.005;
        fill:none;" d="M 0 0.7010371180903152 L 0.0028201888184031347 0.6926601478979495 L 0.005607490916487177 0.6844394623939143 L 0.008362781937245673 0.6763717875505573 L 0.011086904341847996 0.6684539757154159 L 0.013780669060694516 0.6606829993400443 L 0.016444857042259464 0.6530559450960777 L 0.01908022070721514 0.6455700083501079 L 0.021687485314696033 0.638222487971347 L 0.02426735024698752 0.6310107814482342 L 0.026820490218403832 0.6239323802921124 L 0.029347556413648963 0.6169848657078841 L 0.031849177560526555 0.610165904513181 L 0.03432596094147622 0.6034732452890499 L 0.03677849334806033 0.5969047147465024 L 0.039207341982203554 0.5904582142944917 L 0.04161305530769367 0.5841317167959938 L 0.04399616385518479 0.5779232634998862 L 0.046357180983698995 0.5718309611372433 L 0.04869660360139904 0.5658529791715166 L 0.05101491284819951 0.5599875471928428 L 0.05331257474259648 0.5542329524474383 L 0.05559004079492335 0.548587537493683 L 0.05784774858908245 0.5430496979771067 L 0.06008612233465685 0.5376178805170297 L 0.06230557339117335 0.5322905806981262 L 0.06450650076616425 0.5270663411606342 L 0.06668929158856288 0.5219437497833772 L 0.06885432155886262 0.5169214379541465 L 0.07100195537737375 0.5119980789223655 L 0.07313254715182242 0.5071723862292952 L 0.07524644078545466 0.5024431122113445 L 0.07734397034673172 0.49780904657234615 L 0.07942546042163295 0.49326901502092013 L 0.08149122644951709 0.48882187796929455 L 0.08354157504343222 0.48446652929018563 L 0.0855768042957092 0.48020189512854705 L 0.08759720406962042 0.47602693276520003 L 0.08960305627783857 0.47194062952953564 L 0.09159463514838397 0.46794200175865286 L 0.09357220747870855 0.46403009380045546 L 0.09553603287852477 0.46020397705837424 L 0.09748636400195217 0.456462749075523 L 0.09942344676952032 0.45280553265622314 L 0.10134752058053599 0.44923147502294947 L 0.10325881851629265 0.4457397470068629 L 0.10515756753457342 0.4423295422702014 L 0.10704398865587342 0.4390000765588933 L 0.10891829714174317 0.4357505869838525 L 0.11078070266563307 0.4325803313294989 L 0.11263140947659805 0.42948858738812445 L 0.11447061655620226 0.4264746523188041 L 0.11629851776894552 0.42353784202961897 L 0.11811530200651643 0.42067749058202364 L 0.11992115332616123 0.4178929496162539 L 0.1217162510834428 0.41518358779672626 L 0.12350077005965035 0.4125487902764392 L 0.12527488058410713 0.40998795817943245 L 0.12703874865161213 0.4075005081004145 L 0.1287925360352396 0.40508587162070997 L 0.13053640039470996 0.4027434948397237 L 0.13227049538053604 0.40047283792115973 L 0.13399497073413866 0.39827337465327073 L 0.13570997238411756 0.3961445920224508 L 0.13741564253885458 0.39408598979951937 L 0.13911211977561969 0.3920970801380773 L 0.14079953912634172 0.390177387184347 L 0.14247803216020016 0.38832644669793914 L 0.14414772706318743 0.3865438056830167 L 0.14580874871478525 0.38482902202935554 L 0.14746121876189308 0.38318166416282406 L 0.14910525569014138 0.38160131070483494 L 0.1507409748927176 0.3800875501403391 L 0.1523684887368276 0.37863998049396275 L 0.15398790662791167 0.37725820901390406 L 0.15559933507172902 0.37594185186323203 L 0.15720287773442168 0.37469053381825057 L 0.1587986355006638 0.3735038879736068 L 0.16038670653000006 0.37238155545384966 L 0.16196718631147194 0.37132318513115614 L 0.16354016771662835 0.3703284333489658 L 0.16510574105101353 0.3693969636512806 L 0.16666399410422147 0.36852844651740424 L 0.16821501219860396 0.367722559101912 L 0.16975887823671557 0.36697898497965953 L 0.17129567274757646 0.3662974138956533 L 0.1728254739318305 0.3656775415196226 L 0.17434835770587379 0.36511906920514625 L 0.17586439774502546 0.36462170375320346 L 0.17737366552581024 0.3641851571800305 L 0.1788762303674183 0.3638091464891813 L 0.18037215947240678 0.3634933934476978 L 0.18186151796670302 0.36323762436631646 L 0.1833443689389672 0.36304156988363945 L 0.18482077347936923 0.3629049647542215 L 0.18629079071783194 0.3628275476405236 L 0.187754477861789 0.3628090609087029 L 0.18921189023350388 0.3628492504282147 L 0.19066308130699275 0.36294786537521073 L 0.19210810274459084 0.3631046580397276 L 0.19354700443319986 0.3633193836366678 L 0.1949798345202496 0.36359180012058023 L 0.19640663944940515 0.3639216680042553 L 0.19782746399604711 0.36430875018115516 L 0.19924235130255033 0.36475281175170426 L 0.20065134291338235 0.3652536198534678 L 0.20205447881004096 0.36581094349525367 L 0.20345179744584702 0.36642455339517 L 0.20484333578060546 0.3670942218226777 L 0.20622912931514567 0.36781972244467587 L 0.20760921212574865 0.36860083017565903 L 0.2089836168984665 0.3694373210319847 L 0.21035237496333722 0.37032897199029 L 0.21171551632849514 0.37127556085009505 L 0.21307306971417572 0.37227686610062605 L 0.21442506258661043 0.37333266679189125 L 0.21577152119180643 0.3744427424100407 L 0.2171124705892032 0.3756068727570333 L 0.2184479346851971 0.37682483783463383 L 0.219777936266523 0.3780964177327608 L 0.2211024970334808 0.37942139252219265 L 0.22242163763299386 0.380799542151646 L 0.22373537769148424 0.3822306463492273 L 0.2250437358475505 0.38371448452825385 L 0.22634672978443088 0.385250835697441 L 0.2276443762622362 0.38683947837543975 L 0.22893669114993448 0.38848019050970684 L 0.2302236894570708 0.3901727493996845 L 0.23150538536520396 0.3919169316242591 L 0.23278179225904252 0.39371251297346554 L 0.23405292275726308 0.3955592683843956 L 0.2353187887429926 0.3974569718812656 L 0.2365794013939384 0.3994053965195945 L 0.23783477121214808 0.4014043143344347 L 0.2390849080533844 0.4034534962925972 L 0.24032982115609808 0.4055527122488084 L 0.24156951916998418 0.40770173090572814 L 0.24280401018410722 0.4099003197777571 L 0.24403330175458166 0.4121482451585603 L 0.24525740093179438 0.41444527209222515 L 0.24647631428715747 0.4167911643479736 L 0.24769004793937957 0.41918568439834336 L 0.2488986075802459 0.42162859340075065 L 0.25010199849989706 0.4241196511823465 L 0.25130022561159804 0.4266586162280743 L 0.2524932934759898 0.4292452456718361 L 0.2536812063248168 0.4318792952906745 L 0.25486396808412365 0.4345605195018737 L 0.25604158239691766 0.4372886713628845 L 0.25721405264529057 0.4400635025739775 L 0.2583813819719985 0.4428847634835258 L 0.25954357330149624 0.4457522030958214 L 0.2607006293604243 0.44866556908132904 L 0.2618525526975485 0.45162460778927893 L 0.2629993457031509 0.45462906426250316 L 0.26414101062787365 0.4576786822544213 L 0.26527754960101585 0.4607732042480782 L 0.26640896464828634 0.4639123714771408 L 0.26753525770901426 0.46709592394876287 L 0.2686564306528207 0.4703236004682224 L 0.2697724852957546 0.4735951386652456 L 0.2708834234158982 0.47691027502192396 L 0.2719892467684455 0.4802687449021408 L 0.27308995710025885 0.48367028258241795 L 0.27418555616391055 0.48711462128410143 L 0.27527604573121356 0.49060149320680024 L 0.276361427606249 0.4941306295629998 L 0.2774417036378963 0.4977017606137697 L 0.2785168757318729 0.5013146157054885 L 0.2795869458622916 0.5049689233075108 L 0.28065191608274165 0.5086644110507017 L 0.2817117885369024 0.512400805766769 L 0.2827665654686965 0.5161778335283215 L 0.28381624923199184 0.5199952196895858 L 0.2848608422998589 0.5238526889277182 L 0.28590034727339364 0.5277499652846434 L 0.28693476689011255 0.531686772209363 L 0.2879641040319303 0.5356628326006696 L 0.28898836173272674 0.5396778688502107 L 0.2900075431855139 0.5437316028858457 L 0.29102165174921 0.5478237562152412 L 0.2920306909550306 0.5519540499696527 L 0.29303466451250476 0.5561222049478421 L 0.2940335763151257 0.5603279416600826 L 0.29502743044564456 0.5645709803722015 L 0.2960162311810156 0.5688510411496208 L 0.2969999829970026 0.5731678439013468 L 0.29797869057245413 0.5775211084238707 L 0.29895235879325716 0.5819105544449388 L 0.29992099275597744 0.5863359016671537 L 0.30088459777119475 0.5907968698113709 L 0.3018431793665425 0.5952931786598558 L 0.30279674328945877 0.5998245480991651 L 0.30374529550965884 0.6043906981627252 L 0.30468884222133574 0.6089913490730726 L 0.3056273898450981 0.6136262212837305 L 0.30656094502965314 0.6182950355206931 L 0.3074895146532425 0.6229975128234909 L 0.3084131058248389 0.6277333745858138 L 0.30933172588511165 0.6325023425956671 L 0.31024538240716826 0.6373041390750396 L 0.3111540831970798 0.6421384867190629 L 0.3120578362941978 0.6470051087346409 L 0.31295664997126915 0.6519037288785344 L 0.3138505327343569 0.6568340714948804 L 0.314739493322574 0.661795861552132 L 0.3156235407076362 0.666788824679404 L 0.3165026840932417 0.6718126872022105 L 0.317376932914284 0.6768671761775802 L 0.3182462968359037 0.6819520194285412 L 0.31911078575238766 0.6870669455779612 L 0.31997040978591884 0.6922116840817354 L 0.3208251792851861 0.6973859652613128 L 0.32167510482385764 0.702589520335553 L 0.3225201971989254 0.7078220814519075 L 0.3233604674289252 0.713083381716917 L 0.32419592675203923 0.7183731552260231 L 0.3250265866240857 0.723691137092686 L 0.32585245871640084 0.7290370634768073 L 0.32667355491362 0.7344106716124543 L 0.32748988731136086 0.7398116998348818 L 0.32830146821381534 0.7452398876068524 L 0.3291083101312549 0.7506949755442525 L 0.329910425777453 0.7561767054410041 L 0.3307078280670308 0.7616848202932744 L 0.33150053011272956 0.7672190643229801 L 0.33228854522261436 0.7727791830005921 L 0.3330718868972142 0.7783649230672407 L 0.3338505688266013 0.7839760325561224 L 0.3346246048874153 0.7896122608132149 L 0.33539400913983436 0.7952733585172995 L 0.3361587958244991 0.8009590776992981 L 0.3369189793593915 0.8066691717609273 L 0.33767457433667314 0.8124033954926753 L 0.33842559551948587 0.8181615050911049 L 0.339172057838719 0.8239432581754915 L 0.3399139763897456 0.8297484138037982 L 0.3406513664291312 0.8355767324879959 L 0.3413842433713188 0.8414279762087353 L 0.34211262278529153 0.8473019084293758 L 0.3428365203912181 0.8531982941093805 L 0.3435559520570814 0.8591168997170827 L 0.3442709337952952 0.8650574932418319 L 0.3449814817593101 0.8710198442055277 L 0.3456876122402114 0.8770037236735491 L 0.34638934166331226 0.883008904265086 L 0.34708668658474345 0.8890351601628845 L 0.3477796636880426 0.8950822671224101 L 0.34846828978074446 0.9011500024804411 L 0.34915258179097536 0.9072381451630992 L 0.3498325567640526 0.9133464756933264 L 0.3505082318590917 0.9194747761978168 L 0.35117962434562294 0.9256228304134135 L 0.3518467516002188 0.9317904236929789 L 0.3525096311031344 0.9379773430107474 L 0.35316828043496246 0.9441833769671707 L 0.35382271727330444 0.9504083157932643 L 0.3544729593894584 0.9566519513544655 L 0.3551190246451269 0.9629140771540103 L 0.35576093098914463 0.9691944883358422 L 0.3563986964542273 0.9754929816870583 L 0.35703233915374427 0.9818093556399058 L 0.3576618772785146 0.9881434102733355 L 0.358287329093628 0.9944949473141242 L 0.35890871293529264 1.0008637701375738"></path></svg>