<svg xmlns="http://www.w3.org/2000/svg" xmlns:xlink="http://www.w3.org/1999/xlink" xmlns:sketch="http://www.bohemiancoding.com/sketch/ns" id="canvas" viewBox="0 0 1 1"><rect x="0" y="0" width="1" height="1" style="stroke: #FFFFFF;"></rect><line class="gridLine" style="stroke: gray; stroke-width: 0.001;" x1="0" y1="0.9643541249296081" x2="1" y2="0.9643541249296081"></line><line class="gridLine" style="stroke: gray; stroke-width: 0.001;" x1="0" y1="0.9287082498592164" x2="1" y2="0.9287082498592164"></line><line class="gridLine" style="stroke: gray; stroke-width: 0.001;" x1="0" y1="0.8930623747888247" x2="1" y2="0.8930623747888247"></line><line class="gridLine" style="stroke: gray; stroke-width: 0.001;" x1="0" y1="0.8574164997184328" x2="1" y2="0.8574164997184328"></line><line class="gridLine" style="stroke: gray; stroke-width: 0.001;" x1="0" y1="0.821770624648041" x2="1" y2="0.821770624648041"></line><line class="gridLine" style="stroke: gray; stroke-width: 0.001;" x1="0" y1="0.7861247495776492" x2="1" y2="0.7861247495776492"></line><line class="gridLine" style="stroke: gray; stroke-width: 0.001;" x1="0" y1="0.7504788745072575" x2="1" y2="0.7504788745072575"></line><line class="gridLine" style="stroke: gray; stroke-width: 0.001;" x1="0" y1="0.7148329994368656" x2="1" y2="0.7148329994368656"></line><line class="gridLine" style="stroke: gray; stroke-width: 0.001;" x1="0" y1="0.6791871243664738" x2="1" y2="0.6791871243664738"></line><line class="gridLine" style="stroke: gray; stroke-width: 0.001;" x1="0" y1="0.643541249296082" x2="1" y2="0.643541249296082"></line><line class="gridLine" style="stroke: gray; stroke-width: 0.001;" x1="0" y1="0.6078953742256903" x2="1" y2="0.6078953742256903"></line><line class="gridLine" style="stroke: gray; stroke-width: 0.001;" x1="0" y1="0.5722494991552984" x2="1" y2="0.5722494991552984"></line><line class="gridLine" style="stroke: gray; stroke-width: 0.001;" x1="0" y1="0.5366036240849066" x2="1" y2="0.5366036240849066"></line><line class="gridLine" style="stroke: gray; stroke-width: 0.001;" x1="0" y1="0.5009577490145148" x2="1" y2="0.5009577490145148"></line><line class="gridLine" style="stroke: gray; stroke-width: 0.001;" x1="0" y1="0.4653118739441231" x2="1" y2="0.4653118739441231"></line><line class="gridLine" style="stroke: gray; stroke-width: 0.001;" x1="0" y1="0.42966599887373125" x2="1" y2="0.42966599887373125"></line><line class="gridLine" style="stroke: gray; stroke-width: 0.001;" x1="0" y1="0.3940201238033395" x2="1" y2="0.3940201238033395"></line><line class="gridLine" style="stroke: gray; stroke-width: 0.001;" x1="0" y1="0.35837424873294765" x2="1" y2="0.35837424873294765"></line><line class="gridLine" style="stroke: gray; stroke-width: 0.001;" x1="0" y1="0.3227283736625559" x2="1" y2="0.3227283736625559"></line><line class="gridLine" style="stroke: gray; stroke-width: 0.001;" x1="0" y1="0.28708249859216406" x2="1" y2="0.28708249859216406"></line><line class="gridLine" style="stroke: gray; stroke-width: 0.001;" x1="0" y1="0.2514366235217723" x2="1" y2="0.2514366235217723"></line><line class="gridLine" style="stroke: gray; stroke-width: 0.001;" x1="0" y1="0.21579074845138047" x2="1" y2="0.21579074845138047"></line><line class="gridLine" style="stroke: gray; stroke-width: 0.001;" x1="0" y1="0.18014487338098872" x2="1" y2="0.18014487338098872"></line><line class="gridLine" style="stroke: gray; stroke-width: 0.001;" x1="0" y1="0.14449899831059687" x2="1" y2="0.14449899831059687"></line><line class="gridLine" style="stroke: gray; stroke-width: 0.001;" x1="0" y1="0.10885312324020513" x2="1" y2="0.10885312324020513"></line><line class="gridLine" style="stroke: gray; stroke-width: 0.001;" x1="0" y1="0.07320724816981328" x2="1" y2="0.07320724816981328"></line><line class="gridLine" style="stroke: gray; stroke-width: 0.001;" x1="0" y1="0.037561373099421536" x2="1" y2="0.037561373099421536"></line><line class="gridLine" style="stroke: gray; stroke-width: 0.001;" x1="0" y1="0.001915498029029683" x2="1" y2="0.001915498029029683"></line><line class="gridLine" style="stroke: gray; stroke-width: 0.001;" x1="0.017604828763032702" y1="0" x2="0.017604828763032702" y2="1"></line><line class="gridLine" style="stroke: gray; stroke-width: 0.001;" x1="0.035209657526065405" y1="0" x2="0.035209657526065405" y2="1"></line><line class="gridLine" style="stroke: gray; stroke-width: 0.001;" x1="0.052814486289098114" y1="0" x2="0.052814486289098114" y2="1"></line><line class="gridLine" style="stroke: gray; stroke-width: 0.001;" x1="0.07041931505213081" y1="0" x2="0.07041931505213081" y2="1"></line><line class="gridLine" style="stroke: gray; stroke-width: 0.001;" x1="0.0880241438151635" y1="0" x2="0.0880241438151635" y2="1"></line><line class="gridLine" style="stroke: gray; stroke-width: 0.001;" x1="0.1056289725781962" y1="0" x2="0.1056289725781962" y2="1"></line><line class="gridLine" style="stroke: gray; stroke-width: 0.001;" x1="0.12323380134122891" y1="0" x2="0.12323380134122891" y2="1"></line><line class="gridLine" style="stroke: gray; stroke-width: 0.001;" x1="0.1408386301042616" y1="0" x2="0.1408386301042616" y2="1"></line><line class="gridLine" style="stroke: gray; stroke-width: 0.001;" x1="0.1584434588672943" y1="0" x2="0.1584434588672943" y2="1"></line><line class="gridLine" style="stroke: gray; stroke-width: 0.001;" x1="0.176048287630327" y1="0" x2="0.176048287630327" y2="1"></line><line class="gridLine" style="stroke: gray; stroke-width: 0.001;" x1="0.1936531163933597" y1="0" x2="0.1936531163933597" y2="1"></line><line class="gridLine" style="stroke: gray; stroke-width: 0.001;" x1="0.2112579451563924" y1="0" x2="0.2112579451563924" y2="1"></line><line class="gridLine" style="stroke: gray; stroke-width: 0.001;" x1="0.22886277391942514" y1="0" x2="0.22886277391942514" y2="1"></line><line class="gridLine" style="stroke: gray; stroke-width: 0.001;" x1="0.24646760268245785" y1="0" x2="0.24646760268245785" y2="1"></line><line class="gridLine" style="stroke: gray; stroke-width: 0.001;" x1="0.2640724314454906" y1="0" x2="0.2640724314454906" y2="1"></line><line class="gridLine" style="stroke: gray; stroke-width: 0.001;" x1="0.2816772602085233" y1="0" x2="0.2816772602085233" y2="1"></line><line class="gridLine" style="stroke: gray; stroke-width: 0.001;" x1="0.299282088971556" y1="0" x2="0.299282088971556" y2="1"></line><line class="gridLine" style="stroke: gray; stroke-width: 0.001;" x1="0.3168869177345887" y1="0" x2="0.3168869177345887" y2="1"></line><line class="gridLine" style="stroke: gray; stroke-width: 0.001;" x1="0.3344917464976214" y1="0" x2="0.3344917464976214" y2="1"></line><line class="gridLine" style="stroke: gray; stroke-width: 0.001;" x1="0.35209657526065413" y1="0" x2="0.35209657526065413" y2="1"></line><line class="gridLine" style="stroke: gray; stroke-width: 0.001;" x1="0.36970140402368684" y1="0" x2="0.36970140402368684" y2="1"></line><line class="gridLine" style="stroke: gray; stroke-width: 0.001;" x1="0.38730623278671955" y1="0" x2="0.38730623278671955" y2="1"></line><line class="gridLine" style="stroke: gray; stroke-width: 0.001;" x1="0.40491106154975226" y1="0" x2="0.40491106154975226" y2="1"></line><line class="gridLine" style="stroke: gray; stroke-width: 0.001;" x1="0.42251589031278497" y1="0" x2="0.42251589031278497" y2="1"></line><line class="gridLine" style="stroke: gray; stroke-width: 0.001;" x1="0.4401207190758177" y1="0" x2="0.4401207190758177" y2="1"></line><line class="gridLine" style="stroke: gray; stroke-width: 0.001;" x1="0.45772554783885044" y1="0" x2="0.45772554783885044" y2="1"></line><line class="gridLine" style="stroke: gray; stroke-width: 0.001;" x1="0.47533037660188315" y1="0" x2="0.47533037660188315" y2="1"></line><line class="gridLine" style="stroke: gray; stroke-width: 0.001;" x1="0.49293520536491586" y1="0" x2="0.49293520536491586" y2="1"></line><line class="gridLine" style="stroke: gray; stroke-width: 0.001;" x1="0.5105400341279486" y1="0" x2="0.5105400341279486" y2="1"></line><line class="gridLine" style="stroke: gray; stroke-width: 0.001;" x1="0.5281448628909813" y1="0" x2="0.5281448628909813" y2="1"></line><line class="gridLine" style="stroke: gray; stroke-width: 0.001;" x1="0.545749691654014" y1="0" x2="0.545749691654014" y2="1"></line><line class="gridLine" style="stroke: gray; stroke-width: 0.001;" x1="0.5633545204170467" y1="0" x2="0.5633545204170467" y2="1"></line><line class="gridLine" style="stroke: gray; stroke-width: 0.001;" x1="0.5809593491800794" y1="0" x2="0.5809593491800794" y2="1"></line><line class="gridLine" style="stroke: gray; stroke-width: 0.001;" x1="0.5985641779431121" y1="0" x2="0.5985641779431121" y2="1"></line><line class="gridLine" style="stroke: gray; stroke-width: 0.001;" x1="0.6161690067061448" y1="0" x2="0.6161690067061448" y2="1"></line><line class="gridLine" style="stroke: gray; stroke-width: 0.001;" x1="0.6337738354691776" y1="0" x2="0.6337738354691776" y2="1"></line><line class="gridLine" style="stroke: gray; stroke-width: 0.001;" x1="0.6513786642322104" y1="0" x2="0.6513786642322104" y2="1"></line><line class="gridLine" style="stroke: gray; stroke-width: 0.001;" x1="0.6689834929952431" y1="0" x2="0.6689834929952431" y2="1"></line><line class="gridLine" style="stroke: gray; stroke-width: 0.001;" x1="0.6865883217582758" y1="0" x2="0.6865883217582758" y2="1"></line><line class="gridLine" style="stroke: gray; stroke-width: 0.001;" x1="0.7041931505213084" y1="0" x2="0.7041931505213084" y2="1"></line><line class="gridLine" style="stroke: gray; stroke-width: 0.001;" x1="0.721797979284341" y1="0" x2="0.721797979284341" y2="1"></line><line class="gridLine" style="stroke: gray; stroke-width: 0.001;" x1="0.7394028080473737" y1="0" x2="0.7394028080473737" y2="1"></line><line class="gridLine" style="stroke: gray; stroke-width: 0.001;" x1="0.7570076368104063" y1="0" x2="0.7570076368104063" y2="1"></line><line class="gridLine" style="stroke: gray; stroke-width: 0.001;" x1="0.774612465573439" y1="0" x2="0.774612465573439" y2="1"></line><line class="gridLine" style="stroke: gray; stroke-width: 0.001;" x1="0.7922172943364716" y1="0" x2="0.7922172943364716" y2="1"></line><line class="gridLine" style="stroke: gray; stroke-width: 0.001;" x1="0.8098221230995042" y1="0" x2="0.8098221230995042" y2="1"></line><line class="gridLine" style="stroke: gray; stroke-width: 0.001;" x1="0.8274269518625369" y1="0" x2="0.8274269518625369" y2="1"></line><line class="gridLine" style="stroke: gray; stroke-width: 0.001;" x1="0.8450317806255695" y1="0" x2="0.8450317806255695" y2="1"></line><line class="gridLine" style="stroke: gray; stroke-width: 0.001;" x1="0.8626366093886021" y1="0" x2="0.8626366093886021" y2="1"></line><line class="gridLine" style="stroke: gray; stroke-width: 0.001;" x1="0.8802414381516348" y1="0" x2="0.8802414381516348" y2="1"></line><line class="gridLine" style="stroke: gray; stroke-width: 0.001;" x1="0.8978462669146674" y1="0" x2="0.8978462669146674" y2="1"></line><line class="gridLine" style="stroke: gray; stroke-width: 0.001;" x1="0.9154510956777001" y1="0" x2="0.9154510956777001" y2="1"></line><line class="gridLine" style="stroke: gray; stroke-width: 0.001;" x1="0.9330559244407327" y1="0" x2="0.9330559244407327" y2="1"></line><line class="gridLine" style="stroke: gray; stroke-width: 0.001;" x1="0.9506607532037653" y1="0" x2="0.9506607532037653" y2="1"></line><line class="gridLine" style="stroke: gray; stroke-width: 0.001;" x1="0.968265581966798" y1="0" x2="0.968265581966798" y2="1"></line><line class="gridLine" style="stroke: gray; stroke-width: 0.001;" x1="0.9858704107298306" y1="0" x2="0.9858704107298306" y2="1"></line><path style="stroke:black;
        stroke-width:0.005;
        fill:none;" d="M 0 0.821770624648041 L 0.00909090909090909 0.785538313622133 L 0.01818181818181818 0.7502030765553255 L 0.027272727272727275 0.7157771812127236 L 0.03636363636363636 0.6822671235163 L 0.04545454545454545 0.6496766321788062 L 0.05454545454545455 0.6180079719056679 L 0.06363636363636364 0.5872625718767055 L 0.07272727272727272 0.5574413544679784 L 0.08181818181818182 0.5285449185720137 L 0.0909090909090909 0.5005736472594118 L 0.1 0.4735277737373247 L 0.1090909090909091 0.4474074231831737 L 0.11818181818181818 0.4222126400335675 L 0.1272727272727273 0.3979434061821828 L 0.13636363636363635 0.3745996533097853 L 0.14545454545454545 0.35218127131383525 L 0.15454545454545454 0.330688114072619 L 0.16363636363636364 0.3101200033378432 L 0.17272727272727273 0.29047673127648 L 0.1818181818181818 0.27175806200899977 L 0.1909090909090909 0.2539637323780072 L 0.2 0.2370934521058613 L 0.2090909090909091 0.22114690344832266 L 0.2181818181818182 0.2061237404151881 L 0.22727272727272727 0.19202358760287463 L 0.23636363636363636 0.17884603866455562 L 0.24545454545454545 0.16659065442847942 L 0.2545454545454546 0.15525696066294703 L 0.26363636363636367 0.14484444547605535 L 0.2727272727272727 0.1353525563289234 L 0.2818181818181818 0.12678069663214364 L 0.2909090909090909 0.11912822188615868 L 0.3 0.11239443531675675 L 0.3090909090909091 0.10657858294651745 L 0.3181818181818182 0.10167984803145902 L 0.32727272727272727 0.097697344778916 L 0.33636363636363636 0.09463011124737564 L 0.34545454545454546 0.09247710131108344 L 0.3545454545454545 0.09123717555106992 L 0.3636363636363636 0.09090909090909105 L 0.3727272727272727 0.09149148891088343 L 0.3818181818181818 0.09298288222894913 L 0.39090909090909093 0.0953816393113669 L 0.4 0.09868596675006713 L 0.4090909090909091 0.10289388899731167 L 0.4181818181818182 0.10800322495988313 L 0.4272727272727273 0.1140115609030038 L 0.4363636363636364 0.12091621897549909 L 0.44545454545454544 0.12871422051805692 L 0.45454545454545453 0.1374022431296268 L 0.4636363636363636 0.14697657023264443 L 0.4727272727272727 0.15743303158220223 L 0.4818181818181818 0.16876693278948107 L 0.4909090909090909 0.1809729714517726 L 0.5 0.1940451368682664 L 0.5090909090909091 0.2079765895294423 L 0.5181818181818182 0.22275951554022866 L 0.5272727272727273 0.2383849497937972 L 0.5363636363636363 0.25484255994548544 L 0.5454545454545454 0.27212038089513446 L 0.5545454545454546 0.2902044863636224 L 0.5636363636363636 0.3090785799561184 L 0.5727272727272728 0.32872348243512495 L 0.5818181818181818 0.349116484210681 L 0.5909090909090909 0.37023052149044433 L 0.6 0.3920331199895354 L 0.6090909090909091 0.4144850299998345 L 0.6181818181818182 0.4375384487811107 L 0.6272727272727273 0.4611346877310497 L 0.6363636363636364 0.4852010888756362 L 0.6454545454545454 0.5096469236144332 L 0.6545454545454545 0.534357912749202 L 0.6636363636363636 0.5591888912438797 L 0.6727272727272727 0.583954017779698 L 0.6818181818181818 0.6084138459240878 L 0.6909090909090909 0.6322586567223518 L 0.7 0.6550879883790013 L 0.709090909090909 0.6763878542454078 L 0.7181818181818181 0.6955106219367535 L 0.7272727272727272 0.7116687775180128 L 0.7363636363636363 0.7239618118652695 L 0.7454545454545454 0.7314586198397675 L 0.7545454545454545 0.7333421595048863 L 0.7636363636363636 0.7290804251174068 L 0.7727272727272727 0.7185443956931938 L 0.7818181818181819 0.7020052325543884 L 0.7909090909090909 0.6800180488150134 L 0.8 0.6532647598629449 L 0.8090909090909091 0.6224260506223254 L 0.8181818181818182 0.5881086191401188 L 0.8272727272727273 0.5508189906285278 L 0.8363636363636364 0.5109647380408393 L 0.8454545454545455 0.46886759449850335 L 0.8545454545454546 0.424779505415982 L 0.8636363636363636 0.37889755005249937 L 0.8727272727272728 0.33137637158127387 L 0.8818181818181817 0.28233799769216084 L 0.8909090909090909 0.2318793965017385 L 0.8999999999999999 0.18007821863213247 L 0.9090909090909091 0.1269971425484281"></path><circle cx="0.7528713239840159" cy="0.7334461728406907" r="0.01"></circle><line class="labelLine" style="stroke: black;stroke-width: 0.002" x1="0.7528713239840159" y1="0.7334461728406907" x2="0.7028713239840159" y2="0.6834461728406906"></line><text text-anchor="end" font-size="0.03px" class="pointLabel" x="0.7028713239840159" y="0.6834461728406906">Turning point (4.277,7.478)</text><circle cx="0.3623645304815021" cy="0.09090017931738004" r="0.01"></circle><line class="labelLine" style="stroke: black;stroke-width: 0.002" x1="0.3623645304815021" y1="0.09090017931738004" x2="0.41236453048150207" y2="0.04090017931737999"></line><text text-anchor="start" font-size="0.03px" class="pointLabel" x="0.41236453048150207" y="0.04090017931737999">Turning point (2.058,25.50)</text></svg>