<svg xmlns="http://www.w3.org/2000/svg" xmlns:xlink="http://www.w3.org/1999/xlink" xmlns:sketch="http://www.bohemiancoding.com/sketch/ns" id="canvas" viewBox="0 0 1 1"><rect x="0" y="0" width="1" height="1" style="stroke: #FFFFFF;"></rect><line class="gridLine" style="stroke: gray; stroke-width: 0.001;" x1="0" y1="0.9554545454545454" x2="1" y2="0.9554545454545454"></line><line class="gridLine" style="stroke: gray; stroke-width: 0.001;" x1="0" y1="0.9109090909090909" x2="1" y2="0.9109090909090909"></line><line class="gridLine" style="stroke: gray; stroke-width: 0.001;" x1="0" y1="0.8663636363636363" x2="1" y2="0.8663636363636363"></line><line class="gridLine" style="stroke: gray; stroke-width: 0.001;" x1="0" y1="0.8218181818181818" x2="1" y2="0.8218181818181818"></line><line class="gridLine" style="stroke: gray; stroke-width: 0.001;" x1="0" y1="0.7772727272727272" x2="1" y2="0.7772727272727272"></line><line class="gridLine" style="stroke: gray; stroke-width: 0.001;" x1="0" y1="0.7327272727272727" x2="1" y2="0.7327272727272727"></line><line class="gridLine" style="stroke: gray; stroke-width: 0.001;" x1="0" y1="0.6881818181818182" x2="1" y2="0.6881818181818182"></line><line class="gridLine" style="stroke: gray; stroke-width: 0.001;" x1="0" y1="0.6436363636363636" x2="1" y2="0.6436363636363636"></line><line class="gridLine" style="stroke: gray; stroke-width: 0.001;" x1="0" y1="0.5990909090909091" x2="1" y2="0.5990909090909091"></line><line class="gridLine" style="stroke: gray; stroke-width: 0.001;" x1="0" y1="0.5545454545454545" x2="1" y2="0.5545454545454545"></line><line class="gridLine" style="stroke: gray; stroke-width: 0.001;" x1="0" y1="0.51" x2="1" y2="0.51"></line><line class="gridLine" style="stroke: gray; stroke-width: 0.001;" x1="0" y1="0.46545454545454534" x2="1" y2="0.46545454545454534"></line><line class="gridLine" style="stroke: gray; stroke-width: 0.001;" x1="0" y1="0.4209090909090908" x2="1" y2="0.4209090909090908"></line><line class="gridLine" style="stroke: gray; stroke-width: 0.001;" x1="0" y1="0.37636363636363634" x2="1" y2="0.37636363636363634"></line><line class="gridLine" style="stroke: gray; stroke-width: 0.001;" x1="0" y1="0.3318181818181818" x2="1" y2="0.3318181818181818"></line><line class="gridLine" style="stroke: gray; stroke-width: 0.001;" x1="0" y1="0.28727272727272724" x2="1" y2="0.28727272727272724"></line><line class="gridLine" style="stroke: gray; stroke-width: 0.001;" x1="0" y1="0.24272727272727268" x2="1" y2="0.24272727272727268"></line><line class="gridLine" style="stroke: gray; stroke-width: 0.001;" x1="0" y1="0.19818181818181813" x2="1" y2="0.19818181818181813"></line><line class="gridLine" style="stroke: gray; stroke-width: 0.001;" x1="0" y1="0.15363636363636357" x2="1" y2="0.15363636363636357"></line><line class="gridLine" style="stroke: gray; stroke-width: 0.001;" x1="0" y1="0.10909090909090902" x2="1" y2="0.10909090909090902"></line><line class="gridLine" style="stroke: gray; stroke-width: 0.001;" x1="0" y1="0.06454545454545446" x2="1" y2="0.06454545454545446"></line><line class="gridLine" style="stroke: gray; stroke-width: 0.001;" x1="0" y1="0.019999999999999907" x2="1" y2="0.019999999999999907"></line><line class="gridLine" style="stroke: gray; stroke-width: 0.001;" x1="0.02227272727272727" y1="0" x2="0.02227272727272727" y2="1"></line><line class="gridLine" style="stroke: gray; stroke-width: 0.001;" x1="0.04454545454545454" y1="0" x2="0.04454545454545454" y2="1"></line><line class="gridLine" style="stroke: gray; stroke-width: 0.001;" x1="0.06681818181818182" y1="0" x2="0.06681818181818182" y2="1"></line><line class="gridLine" style="stroke: gray; stroke-width: 0.001;" x1="0.08909090909090908" y1="0" x2="0.08909090909090908" y2="1"></line><line class="gridLine" style="stroke: gray; stroke-width: 0.001;" x1="0.11136363636363636" y1="0" x2="0.11136363636363636" y2="1"></line><line class="gridLine" style="stroke: gray; stroke-width: 0.001;" x1="0.13363636363636364" y1="0" x2="0.13363636363636364" y2="1"></line><line class="gridLine" style="stroke: gray; stroke-width: 0.001;" x1="0.1559090909090909" y1="0" x2="0.1559090909090909" y2="1"></line><line class="gridLine" style="stroke: gray; stroke-width: 0.001;" x1="0.17818181818181816" y1="0" x2="0.17818181818181816" y2="1"></line><line class="gridLine" style="stroke: gray; stroke-width: 0.001;" x1="0.20045454545454544" y1="0" x2="0.20045454545454544" y2="1"></line><line class="gridLine" style="stroke: gray; stroke-width: 0.001;" x1="0.22272727272727272" y1="0" x2="0.22272727272727272" y2="1"></line><line class="gridLine" style="stroke: gray; stroke-width: 0.001;" x1="0.245" y1="0" x2="0.245" y2="1"></line><line class="gridLine" style="stroke: gray; stroke-width: 0.001;" x1="0.2672727272727273" y1="0" x2="0.2672727272727273" y2="1"></line><line class="gridLine" style="stroke: gray; stroke-width: 0.001;" x1="0.28954545454545455" y1="0" x2="0.28954545454545455" y2="1"></line><line class="gridLine" style="stroke: gray; stroke-width: 0.001;" x1="0.3118181818181818" y1="0" x2="0.3118181818181818" y2="1"></line><line class="gridLine" style="stroke: gray; stroke-width: 0.001;" x1="0.33409090909090905" y1="0" x2="0.33409090909090905" y2="1"></line><line class="gridLine" style="stroke: gray; stroke-width: 0.001;" x1="0.3563636363636363" y1="0" x2="0.3563636363636363" y2="1"></line><line class="gridLine" style="stroke: gray; stroke-width: 0.001;" x1="0.3786363636363636" y1="0" x2="0.3786363636363636" y2="1"></line><line class="gridLine" style="stroke: gray; stroke-width: 0.001;" x1="0.4009090909090909" y1="0" x2="0.4009090909090909" y2="1"></line><line class="gridLine" style="stroke: gray; stroke-width: 0.001;" x1="0.42318181818181816" y1="0" x2="0.42318181818181816" y2="1"></line><line class="gridLine" style="stroke: gray; stroke-width: 0.001;" x1="0.44545454545454544" y1="0" x2="0.44545454545454544" y2="1"></line><line class="gridLine" style="stroke: gray; stroke-width: 0.001;" x1="0.4677272727272727" y1="0" x2="0.4677272727272727" y2="1"></line><line class="gridLine" style="stroke: gray; stroke-width: 0.001;" x1="0.49" y1="0" x2="0.49" y2="1"></line><line class="gridLine" style="stroke: gray; stroke-width: 0.001;" x1="0.5122727272727272" y1="0" x2="0.5122727272727272" y2="1"></line><line class="gridLine" style="stroke: gray; stroke-width: 0.001;" x1="0.5345454545454545" y1="0" x2="0.5345454545454545" y2="1"></line><line class="gridLine" style="stroke: gray; stroke-width: 0.001;" x1="0.5568181818181818" y1="0" x2="0.5568181818181818" y2="1"></line><line class="gridLine" style="stroke: gray; stroke-width: 0.001;" x1="0.5790909090909091" y1="0" x2="0.5790909090909091" y2="1"></line><line class="gridLine" style="stroke: gray; stroke-width: 0.001;" x1="0.6013636363636363" y1="0" x2="0.6013636363636363" y2="1"></line><line class="gridLine" style="stroke: gray; stroke-width: 0.001;" x1="0.6236363636363637" y1="0" x2="0.6236363636363637" y2="1"></line><line class="gridLine" style="stroke: gray; stroke-width: 0.001;" x1="0.6459090909090909" y1="0" x2="0.6459090909090909" y2="1"></line><line class="gridLine" style="stroke: gray; stroke-width: 0.001;" x1="0.6681818181818181" y1="0" x2="0.6681818181818181" y2="1"></line><line class="gridLine" style="stroke: gray; stroke-width: 0.001;" x1="0.6904545454545454" y1="0" x2="0.6904545454545454" y2="1"></line><line class="gridLine" style="stroke: gray; stroke-width: 0.001;" x1="0.7127272727272727" y1="0" x2="0.7127272727272727" y2="1"></line><line class="gridLine" style="stroke: gray; stroke-width: 0.001;" x1="0.735" y1="0" x2="0.735" y2="1"></line><line class="gridLine" style="stroke: gray; stroke-width: 0.001;" x1="0.7572727272727272" y1="0" x2="0.7572727272727272" y2="1"></line><line class="gridLine" style="stroke: gray; stroke-width: 0.001;" x1="0.7795454545454545" y1="0" x2="0.7795454545454545" y2="1"></line><line class="gridLine" style="stroke: gray; stroke-width: 0.001;" x1="0.8018181818181818" y1="0" x2="0.8018181818181818" y2="1"></line><line class="gridLine" style="stroke: gray; stroke-width: 0.001;" x1="0.8240909090909091" y1="0" x2="0.8240909090909091" y2="1"></line><line class="gridLine" style="stroke: gray; stroke-width: 0.001;" x1="0.8463636363636363" y1="0" x2="0.8463636363636363" y2="1"></line><line class="gridLine" style="stroke: gray; stroke-width: 0.001;" x1="0.8686363636363637" y1="0" x2="0.8686363636363637" y2="1"></line><line class="gridLine" style="stroke: gray; stroke-width: 0.001;" x1="0.8909090909090909" y1="0" x2="0.8909090909090909" y2="1"></line><line class="gridLine" style="stroke: gray; stroke-width: 0.001;" x1="0.9131818181818181" y1="0" x2="0.9131818181818181" y2="1"></line><line class="gridLine" style="stroke: gray; stroke-width: 0.001;" x1="0.9354545454545454" y1="0" x2="0.9354545454545454" y2="1"></line><line class="gridLine" style="stroke: gray; stroke-width: 0.001;" x1="0.9577272727272726" y1="0" x2="0.9577272727272726" y2="1"></line><line class="gridLine" style="stroke: gray; stroke-width: 0.001;" x1="0.98" y1="0" x2="0.98" y2="1"></line><path style="stroke:green;
        stroke-width:0.005;
        fill:none;" d="M 0 1 L 0.0064174833537378306 0.9692508085202004 L 0.012834966707475661 0.9391228128278716 L 0.01925245006121349 0.9096160129230134 L 0.025669933414951322 0.8807304088056259 L 0.03208741676868915 0.8524660004757092 L 0.03850490012242698 0.8248227879332631 L 0.04492238347616481 0.7978007711782877 L 0.051339866829902644 0.7713999502107831 L 0.05775735018364047 0.7456203250307492 L 0.0641748335373783 0.7204618956381859 L 0.07059231689111614 0.6959246620330932 L 0.07700980024485396 0.6720086242154715 L 0.08342728359859179 0.6487137821853202 L 0.08984476695232962 0.6260401359426397 L 0.09626225030606746 0.60398768548743 L 0.10267973365980529 0.5825564308196909 L 0.10909721701354311 0.5617463719394225 L 0.11551470036728094 0.5415575088466249 L 0.12193218372101877 0.5219898415412978 L 0.1283496670747566 0.5030433700234416 L 0.13476715042849444 0.484718094293056 L 0.14118463378223228 0.4670140143501411 L 0.1476021171359701 0.44993113019469677 L 0.15401960048970792 0.4334694418267233 L 0.16043708384344577 0.4176289492462205 L 0.16685456719718358 0.4024096524531884 L 0.1732720505509214 0.387811551447627 L 0.17968953390465925 0.37383464622953644 L 0.1861070172583971 0.3604789367989163 L 0.1925245006121349 0.3477444231557669 L 0.19894198396587273 0.33563110530008833 L 0.20535946731961058 0.3241389832318805 L 0.2117769506733484 0.31326805695114324 L 0.21819443402708621 0.30301832645787674 L 0.22461191738082406 0.293389791752081 L 0.23102940073456188 0.28438245283375596 L 0.2374468840882997 0.27599630970290134 L 0.24386436744203754 0.26823136235951783 L 0.25028185079577536 0.26108761080360465 L 0.2566993341495132 0.25456505503516225 L 0.26311681750325105 0.24866369505419061 L 0.2695343008569889 0.24338353086068976 L 0.2759517842107267 0.23872456245465956 L 0.28236926756446457 0.23468678983610003 L 0.2887867509182024 0.23127021300501116 L 0.2952042342719402 0.22847483196139295 L 0.301621717625678 0.22630064670524563 L 0.30803920097941584 0.22474765723656875 L 0.31445668433315366 0.22381586355536287 L 0.32087416768689153 0.2235052656616272 L 0.32729165104062935 0.22381586355536276 L 0.33370913439436717 0.22474765723656875 L 0.340126617748105 0.22630064670524563 L 0.3465441011018428 0.22847483196139295 L 0.3529615844555806 0.23127021300501094 L 0.3593790678093185 0.23468678983610014 L 0.36579655116305637 0.23872456245465956 L 0.3722140345167942 0.24338353086068976 L 0.378631517870532 0.24866369505419084 L 0.3850490012242698 0.25456505503516214 L 0.39146648457800765 0.26108761080360476 L 0.39788396793174546 0.2682313623595175 L 0.40430145128548334 0.2759963097029017 L 0.41071893463922116 0.28438245283375596 L 0.417136417992959 0.2933897917520809 L 0.4235539013466968 0.30301832645787663 L 0.4299713847004346 0.3132680569511431 L 0.43638886805417243 0.3241389832318805 L 0.4428063514079103 0.3356311053000888 L 0.4492238347616481 0.34774442315576704 L 0.45564131811538594 0.3604789367989162 L 0.46205880146912376 0.37383464622953666 L 0.4684762848228616 0.38781155144762725 L 0.4748937681765994 0.40240965245318827 L 0.48131125153033727 0.4176289492462204 L 0.4877287348840751 0.43346944182672364 L 0.4941462182378129 0.449931130194697 L 0.5005637015915507 0.4670140143501408 L 0.5069811849452885 0.484718094293056 L 0.5133986682990264 0.5030433700234413 L 0.5198161516527643 0.521989841541298 L 0.5262336350065021 0.5415575088466249 L 0.5326511183602399 0.5617463719394228 L 0.5390686017139777 0.5825564308196911 L 0.5454860850677156 0.6039876854874303 L 0.5519035684214534 0.62604013594264 L 0.5583210517751913 0.6487137821853203 L 0.5647385351289291 0.6720086242154717 L 0.571156018482667 0.6959246620330937 L 0.5775735018364048 0.7204618956381863 L 0.5839909851901426 0.745620325030749 L 0.5904084685438804 0.7713999502107832 L 0.5968259518976182 0.7978007711782878 L 0.603243435251356 0.8248227879332632 L 0.6096609186050939 0.8524660004757091 L 0.6160784019588317 0.8807304088056259 L 0.6224958853125695 0.9096160129230133 L 0.6289133686663073 0.9391228128278721 L 0.6353308520200452 0.969250808520201 L 0.6417483353737831 0.9999999999999993"></path><path style="stroke:blue;
        stroke-width:0.005;
        fill:none;" d="M 0 1 L 0.001300698464443991 0.9641851914797995 L 0.002601396928887982 0.9290939144448557 L 0.0039020953933319724 0.8947261688951683 L 0.005202793857775964 0.8610819548307376 L 0.006503492322219954 0.8281612722515634 L 0.007804190786663945 0.7959641211576458 L 0.009104889251107936 0.7644905015489849 L 0.010405587715551928 0.7337404134255804 L 0.011706286179995917 0.7037138567874326 L 0.013006984644439909 0.6744108316345412 L 0.0143076831088839 0.6458313379669065 L 0.01560838157332789 0.6179753757845283 L 0.016909080037771883 0.5908429450874069 L 0.018209778502215872 0.5644340458755419 L 0.019510476966659862 0.5387486781489335 L 0.020811175431103855 0.5137868419075816 L 0.022111873895547845 0.4895485371514863 L 0.023412572359991835 0.46603376388064766 L 0.024713270824435828 0.44324252209506554 L 0.026013969288879817 0.42117481179474003 L 0.02731466775332381 0.39983063297967103 L 0.0286153662177678 0.37920998564985864 L 0.029916064682211793 0.35931286980530275 L 0.03121676314665578 0.3401392854460036 L 0.03251746161109977 0.321689232571961 L 0.033818160075543766 0.30396271118317486 L 0.03511885853998776 0.2869597212796453 L 0.036419557004431745 0.2706802628613725 L 0.03772025546887574 0.25512433592835604 L 0.039020953933319724 0.2402919404805962 L 0.04032165239776372 0.22618307651809288 L 0.04162235086220771 0.2127977440408464 L 0.0429230493266517 0.20013594304885618 L 0.04422374779109569 0.1881976735421228 L 0.04552444625553968 0.17698293552064592 L 0.04682514471998367 0.16649172898442566 L 0.04812584318442767 0.15672405393346178 L 0.049426541648871655 0.14767991036775485 L 0.05072724011331564 0.13935929828730398 L 0.052027938577759635 0.13176221769210994 L 0.053328637042203635 0.12488866858217251 L 0.05462933550664762 0.11873865095749181 L 0.05593003397109161 0.11331216481806727 L 0.0572307324355356 0.10860921016389957 L 0.05853143089997959 0.10462978699498848 L 0.059832129364423586 0.1013738953113339 L 0.06113282782886757 0.09884153511293559 L 0.06243352629331156 0.09703270639979422 L 0.06373422475775554 0.09594740917190958 L 0.06503492322219954 0.09558564342928133 L 0.06633562168664353 0.09594740917190947 L 0.06763632015108753 0.09703270639979455 L 0.06893701861553152 0.09884153511293559 L 0.07023771707997552 0.10137389531133367 L 0.0715384155444195 0.10462978699498815 L 0.07283911400886349 0.10860921016389968 L 0.07413981247330748 0.11331216481806727 L 0.07544051093775148 0.11873865095749192 L 0.07674120940219546 0.12488866858217251 L 0.07804190786663945 0.13176221769211005 L 0.07934260633108345 0.13935929828730376 L 0.08064330479552743 0.14767991036775452 L 0.08194400325997143 0.15672405393346178 L 0.08324470172441542 0.16649172898442588 L 0.08454540018885941 0.17698293552064592 L 0.0858460986533034 0.18819767354212247 L 0.0871467971177474 0.20013594304885618 L 0.08844749558219138 0.2127977440408464 L 0.08974819404663537 0.2261830765180931 L 0.09104889251107937 0.2402919404805961 L 0.09234959097552335 0.25512433592835615 L 0.09365028943996734 0.27068026286137215 L 0.09495098790441135 0.2869597212796453 L 0.09625168636885534 0.30396271118317497 L 0.09755238483329932 0.32168923257196114 L 0.09885308329774331 0.3401392854460038 L 0.1001537817621873 0.35931286980530275 L 0.10145448022663128 0.37920998564985886 L 0.10275517869107528 0.3998306329796717 L 0.10405587715551927 0.4211748117947398 L 0.10535657561996326 0.4432425220950654 L 0.10665727408440727 0.4660337638806479 L 0.10795797254885126 0.4895485371514866 L 0.10925867101329524 0.5137868419075821 L 0.11055936947773923 0.5387486781489335 L 0.11186006794218321 0.5644340458755417 L 0.1131607664066272 0.5908429450874068 L 0.1144614648710712 0.6179753757845283 L 0.11576216333551519 0.6458313379669067 L 0.11706286179995919 0.6744108316345416 L 0.11836356026440319 0.7037138567874328 L 0.11966425872884717 0.7337404134255807 L 0.12096495719329116 0.7644905015489856 L 0.12226565565773514 0.7959641211576454 L 0.12356635412217913 0.8281612722515632 L 0.12486705258662312 0.8610819548307374 L 0.12616775105106712 0.8947261688951682 L 0.1274684495155111 0.9290939144448559 L 0.12876914797995512 0.9641851914798005 L 0.1300698464443991 1.0000000000000007"></path><path style="stroke:black;
        stroke-width:0.005;
        fill:none;" d="M 0 1 L 0.0021097030081589983 0.9823050461973033 L 0.004219406016317997 0.9649675662088025 L 0.006329109024476995 0.9479875600344977 L 0.008438812032635993 0.9313650276743887 L 0.01054851504079499 0.9150999691284756 L 0.01265821804895399 0.8991923843967584 L 0.014767921057112988 0.8836422734792371 L 0.016877624065271987 0.8684496363759117 L 0.018987327073430985 0.8536144730867821 L 0.02109703008158998 0.8391367836118485 L 0.023206733089748983 0.8250165679511107 L 0.02531643609790798 0.8112538261045689 L 0.02742613910606698 0.7978485580722229 L 0.029535842114225976 0.7848007638540728 L 0.031645545122384974 0.7721104434501187 L 0.03375524813054397 0.7597775968603604 L 0.03586495113870297 0.7478022240847979 L 0.03797465414686197 0.7361843251234315 L 0.04008435715502097 0.7249238999762608 L 0.04219406016317996 0.7140209486432862 L 0.04430376317133896 0.7034754711245074 L 0.046413466179497966 0.6932874674199243 L 0.048523169187656964 0.6834569375295373 L 0.05063287219581596 0.6739838814533463 L 0.05274257520397496 0.664868299191351 L 0.05485227821213396 0.6561101907435516 L 0.05696198122029295 0.6477095561099482 L 0.05907168422845195 0.6396663952905406 L 0.06118138723661095 0.631980708285329 L 0.06329109024476995 0.6246524950943131 L 0.06540079325292894 0.6176817557174932 L 0.06751049626108795 0.6110684901548691 L 0.06962019926924694 0.6048126984064411 L 0.07172990227740594 0.5989143804722088 L 0.07383960528556494 0.5933735363521725 L 0.07594930829372394 0.5881901660463322 L 0.07805901130188293 0.5833642695546875 L 0.08016871431004194 0.5788958468772389 L 0.08227841731820093 0.5747848980139861 L 0.08438812032635992 0.5710314229649294 L 0.08649782333451893 0.5676354217300682 L 0.08860752634267792 0.5645968943094033 L 0.09071722935083694 0.5619158407029339 L 0.09282693235899593 0.5595922609106607 L 0.09493663536715492 0.5576261549325834 L 0.09704633837531393 0.5560175227687016 L 0.09915604138347292 0.5547663644190162 L 0.10126574439163193 0.5538726798835265 L 0.10337544739979092 0.5533364691622327 L 0.10548515040794992 0.5531577322551346 L 0.10759485341610892 0.5533364691622324 L 0.10970455642426792 0.5538726798835265 L 0.11181425943242691 0.5547663644190162 L 0.1139239624405859 0.5560175227687018 L 0.11603366544874491 0.5576261549325834 L 0.1181433684569039 0.5595922609106607 L 0.12025307146506291 0.5619158407029342 L 0.1223627744732219 0.5645968943094033 L 0.1244724774813809 0.5676354217300682 L 0.1265821804895399 0.5710314229649294 L 0.1286918834976989 0.574784898013986 L 0.13080158650585788 0.5788958468772389 L 0.1329112895140169 0.5833642695546876 L 0.1350209925221759 0.5881901660463322 L 0.13713069553033488 0.5933735363521727 L 0.13924039853849388 0.598914380472209 L 0.1413501015466529 0.6048126984064413 L 0.1434598045548119 0.6110684901548691 L 0.14556950756297088 0.6176817557174932 L 0.14767921057112987 0.6246524950943131 L 0.14978891357928886 0.6319807082853292 L 0.15189861658744788 0.6396663952905408 L 0.15400831959560687 0.6477095561099484 L 0.15611802260376587 0.6561101907435516 L 0.15822772561192486 0.6648682991913508 L 0.16033742862008388 0.6739838814533465 L 0.16244713162824287 0.6834569375295374 L 0.16455683463640186 0.6932874674199245 L 0.16666653764456085 0.7034754711245075 L 0.16877624065271984 0.7140209486432862 L 0.17088594366087886 0.7249238999762607 L 0.17299564666903786 0.7361843251234313 L 0.17510534967719685 0.7478022240847979 L 0.17721505268535584 0.7597775968603606 L 0.17932475569351486 0.7721104434501188 L 0.18143445870167388 0.7848007638540728 L 0.18354416170983284 0.797848558072223 L 0.18565386471799186 0.811253826104569 L 0.18776356772615083 0.825016567951111 L 0.18987327073430985 0.8391367836118492 L 0.19198297374246884 0.8536144730867823 L 0.19409267675062786 0.8684496363759117 L 0.19620237975878682 0.8836422734792375 L 0.19831208276694584 0.8991923843967586 L 0.20042178577510483 0.915099969128476 L 0.20253148878326385 0.9313650276743893 L 0.20464119179142282 0.9479875600344977 L 0.20675089479958184 0.9649675662088029 L 0.20886059780774083 0.9823050461973037 L 0.21097030081589985 1.0000000000000002"></path><path style="stroke:red;
        stroke-width:0.005;
        fill:none;" d="M 0 1 L 0.00909090909090909 0.982 L 0.01818181818181818 0.9643636363636363 L 0.02727272727272727 0.9470909090909091 L 0.03636363636363636 0.9301818181818182 L 0.045454545454545456 0.9136363636363636 L 0.05454545454545454 0.8974545454545455 L 0.06363636363636363 0.8816363636363637 L 0.07272727272727272 0.8661818181818182 L 0.08181818181818182 0.8510909090909091 L 0.09090909090909091 0.8363636363636364 L 0.1 0.8220000000000001 L 0.10909090909090909 0.808 L 0.11818181818181817 0.7943636363636364 L 0.12727272727272726 0.7810909090909091 L 0.13636363636363638 0.7681818181818182 L 0.14545454545454545 0.7556363636363637 L 0.15454545454545454 0.7434545454545455 L 0.16363636363636364 0.7316363636363636 L 0.17272727272727273 0.7201818181818183 L 0.18181818181818182 0.7090909090909091 L 0.1909090909090909 0.6983636363636363 L 0.2 0.688 L 0.2090909090909091 0.6779999999999999 L 0.21818181818181817 0.6683636363636364 L 0.22727272727272727 0.6590909090909092 L 0.23636363636363633 0.6501818181818182 L 0.24545454545454545 0.6416363636363637 L 0.2545454545454545 0.6334545454545455 L 0.2636363636363636 0.6256363636363637 L 0.27272727272727276 0.6181818181818182 L 0.2818181818181818 0.6110909090909091 L 0.2909090909090909 0.6043636363636364 L 0.3 0.598 L 0.3090909090909091 0.5920000000000001 L 0.3181818181818182 0.5863636363636364 L 0.32727272727272727 0.5810909090909091 L 0.33636363636363636 0.5761818181818182 L 0.34545454545454546 0.5716363636363636 L 0.35454545454545455 0.5674545454545455 L 0.36363636363636365 0.5636363636363637 L 0.3727272727272727 0.5601818181818181 L 0.3818181818181818 0.5570909090909091 L 0.3909090909090909 0.5543636363636363 L 0.4 0.552 L 0.4090909090909091 0.55 L 0.4181818181818182 0.5483636363636364 L 0.42727272727272725 0.5470909090909092 L 0.43636363636363634 0.5461818181818182 L 0.44545454545454544 0.5456363636363637 L 0.45454545454545453 0.5454545454545454 L 0.4636363636363636 0.5456363636363637 L 0.47272727272727266 0.5461818181818183 L 0.4818181818181818 0.5470909090909092 L 0.4909090909090909 0.5483636363636364 L 0.5 0.55 L 0.509090909090909 0.552 L 0.5181818181818182 0.5543636363636362 L 0.5272727272727272 0.5570909090909091 L 0.5363636363636364 0.5601818181818181 L 0.5454545454545455 0.5636363636363637 L 0.5545454545454546 0.5674545454545454 L 0.5636363636363636 0.5716363636363637 L 0.5727272727272728 0.5761818181818181 L 0.5818181818181818 0.5810909090909093 L 0.5909090909090909 0.5863636363636364 L 0.6 0.5920000000000001 L 0.609090909090909 0.598 L 0.6181818181818182 0.6043636363636364 L 0.6272727272727273 0.6110909090909092 L 0.6363636363636364 0.6181818181818182 L 0.6454545454545455 0.6256363636363637 L 0.6545454545454545 0.6334545454545456 L 0.6636363636363636 0.6416363636363637 L 0.6727272727272727 0.6501818181818183 L 0.6818181818181818 0.6590909090909092 L 0.6909090909090909 0.6683636363636365 L 0.7000000000000001 0.6780000000000002 L 0.7090909090909091 0.6880000000000003 L 0.7181818181818181 0.6983636363636361 L 0.7272727272727273 0.7090909090909094 L 0.7363636363636363 0.7201818181818183 L 0.7454545454545454 0.7316363636363636 L 0.7545454545454545 0.7434545454545456 L 0.7636363636363636 0.7556363636363636 L 0.7727272727272727 0.7681818181818183 L 0.7818181818181817 0.7810909090909088 L 0.7909090909090908 0.7943636363636364 L 0.8 0.8080000000000004 L 0.8090909090909092 0.8220000000000003 L 0.8181818181818182 0.8363636363636369 L 0.8272727272727273 0.8510909090909091 L 0.8363636363636364 0.8661818181818185 L 0.8454545454545455 0.8816363636363639 L 0.8545454545454545 0.8974545454545457 L 0.8636363636363636 0.9136363636363636 L 0.8727272727272727 0.9301818181818183 L 0.8818181818181818 0.9470909090909093 L 0.8909090909090909 0.9643636363636365 L 0.8999999999999999 0.982 L 0.9090909090909091 1"></path><path style="stroke:purple;
        stroke-width:0.005;
        fill:none;" d="M 0 0.09090909090909094 L 0.00909090909090909 0.09099999999999997 L 0.01818181818181818 0.09127272727272728 L 0.02727272727272727 0.09172727272727277 L 0.03636363636363636 0.09236363636363631 L 0.045454545454545456 0.09318181818181825 L 0.05454545454545454 0.09418181818181814 L 0.06363636363636363 0.09536363636363632 L 0.07272727272727272 0.09672727272727266 L 0.08181818181818182 0.09827272727272729 L 0.09090909090909091 0.10000000000000009 L 0.1 0.10190909090909084 L 0.10909090909090909 0.10400000000000009 L 0.11818181818181817 0.1062727272727273 L 0.12727272727272726 0.10872727272727278 L 0.13636363636363638 0.11136363636363633 L 0.14545454545454545 0.11418181818181827 L 0.15454545454545454 0.11718181818181805 L 0.16363636363636364 0.12036363636363634 L 0.17272727272727273 0.12372727272727269 L 0.18181818181818182 0.12727272727272732 L 0.1909090909090909 0.131 L 0.2 0.13490909090909087 L 0.2090909090909091 0.139 L 0.21818181818181817 0.14327272727272733 L 0.22727272727272727 0.1477272727272727 L 0.23636363636363633 0.15236363636363648 L 0.24545454545454545 0.1571818181818182 L 0.2545454545454545 0.1621818181818182 L 0.2636363636363636 0.16736363636363638 L 0.27272727272727276 0.17272727272727273 L 0.2818181818181818 0.17827272727272725 L 0.2909090909090909 0.18399999999999994 L 0.3 0.18990909090909092 L 0.3090909090909091 0.19599999999999995 L 0.3181818181818182 0.20227272727272716 L 0.32727272727272727 0.20872727272727276 L 0.33636363636363636 0.2153636363636363 L 0.34545454545454546 0.22218181818181815 L 0.35454545454545455 0.22918181818181815 L 0.36363636363636365 0.23636363636363633 L 0.3727272727272727 0.2437272727272728 L 0.3818181818181818 0.2512727272727273 L 0.3909090909090909 0.259 L 0.4 0.2669090909090911 L 0.4090909090909091 0.275 L 0.4181818181818182 0.28327272727272734 L 0.42727272727272725 0.2917272727272727 L 0.43636363636363634 0.3003636363636364 L 0.44545454545454544 0.3091818181818182 L 0.45454545454545453 0.31818181818181823 L 0.4636363636363636 0.3273636363636364 L 0.47272727272727266 0.33672727272727265 L 0.4818181818181818 0.3462727272727274 L 0.4909090909090909 0.3560000000000001 L 0.5 0.36590909090909096 L 0.509090909090909 0.3760000000000001 L 0.5181818181818182 0.3862727272727273 L 0.5272727272727272 0.3967272727272727 L 0.5363636363636364 0.40736363636363637 L 0.5454545454545455 0.4181818181818182 L 0.5545454545454546 0.4291818181818182 L 0.5636363636363636 0.4403636363636364 L 0.5727272727272728 0.45172727272727287 L 0.5818181818181818 0.4632727272727273 L 0.5909090909090909 0.475 L 0.6 0.48690909090909096 L 0.609090909090909 0.499 L 0.6181818181818182 0.5112727272727273 L 0.6272727272727273 0.5237272727272729 L 0.6363636363636364 0.5363636363636366 L 0.6454545454545455 0.5491818181818183 L 0.6545454545454545 0.5621818181818181 L 0.6636363636363636 0.5753636363636363 L 0.6727272727272727 0.5887272727272728 L 0.6818181818181818 0.6022727272727273 L 0.6909090909090909 0.6160000000000001 L 0.7000000000000001 0.6299090909090911 L 0.7090909090909091 0.6440000000000001 L 0.7181818181818181 0.6582727272727273 L 0.7272727272727273 0.672727272727273 L 0.7363636363636363 0.6873636363636364 L 0.7454545454545454 0.7021818181818182 L 0.7545454545454545 0.7171818181818181 L 0.7636363636363636 0.7323636363636363 L 0.7727272727272727 0.7477272727272728 L 0.7818181818181817 0.7632727272727272 L 0.7909090909090908 0.779 L 0.8 0.7949090909090911 L 0.8090909090909092 0.8110000000000003 L 0.8181818181818182 0.8272727272727275 L 0.8272727272727273 0.8437272727272729 L 0.8363636363636364 0.8603636363636366 L 0.8454545454545455 0.8771818181818183 L 0.8545454545454545 0.8941818181818183 L 0.8636363636363636 0.9113636363636365 L 0.8727272727272727 0.9287272727272731 L 0.8818181818181818 0.9462727272727276 L 0.8909090909090909 0.964 L 0.8999999999999999 0.981909090909091 L 0.9090909090909091 1"></path><circle cx="0.11136363636363636" cy="0.5545454545454545" r="0.01"></circle><line class="labelLine" style="stroke: black;stroke-width: 0.002" x1="0.11136363636363636" y1="0.5545454545454545" x2="0.16136363636363638" y2="0.5045454545454544"></line><text text-anchor="start" font-size="0.03px" class="pointLabel" x="0.16136363636363638" y="0.5045454545454544">Target (5.000,10.00)</text></svg>