<svg xmlns="http://www.w3.org/2000/svg" xmlns:xlink="http://www.w3.org/1999/xlink" xmlns:sketch="http://www.bohemiancoding.com/sketch/ns" id="canvas" viewBox="0 0 1 1"><rect x="0" y="0" width="1" height="1" style="stroke: #FFFFFF;"></rect><line class="gridLine" style="stroke: gray; stroke-width: 0.001;" x1="0" y1="0.9402074236180631" x2="1" y2="0.9402074236180631"></line><line class="gridLine" style="stroke: gray; stroke-width: 0.001;" x1="0" y1="0.8804148472361261" x2="1" y2="0.8804148472361261"></line><line class="gridLine" style="stroke: gray; stroke-width: 0.001;" x1="0" y1="0.8206222708541892" x2="1" y2="0.8206222708541892"></line><line class="gridLine" style="stroke: gray; stroke-width: 0.001;" x1="0" y1="0.7608296944722521" x2="1" y2="0.7608296944722521"></line><line class="gridLine" style="stroke: gray; stroke-width: 0.001;" x1="0" y1="0.7010371180903152" x2="1" y2="0.7010371180903152"></line><line class="gridLine" style="stroke: gray; stroke-width: 0.001;" x1="0" y1="0.6412445417083783" x2="1" y2="0.6412445417083783"></line><line class="gridLine" style="stroke: gray; stroke-width: 0.001;" x1="0" y1="0.5814519653264413" x2="1" y2="0.5814519653264413"></line><line class="gridLine" style="stroke: gray; stroke-width: 0.001;" x1="0" y1="0.5216593889445043" x2="1" y2="0.5216593889445043"></line><line class="gridLine" style="stroke: gray; stroke-width: 0.001;" x1="0" y1="0.46186681256256734" x2="1" y2="0.46186681256256734"></line><line class="gridLine" style="stroke: gray; stroke-width: 0.001;" x1="0" y1="0.40207423618063043" x2="1" y2="0.40207423618063043"></line><line class="gridLine" style="stroke: gray; stroke-width: 0.001;" x1="0" y1="0.3422816597986934" x2="1" y2="0.3422816597986934"></line><line class="gridLine" style="stroke: gray; stroke-width: 0.001;" x1="0" y1="0.2824890834167565" x2="1" y2="0.2824890834167565"></line><line class="gridLine" style="stroke: gray; stroke-width: 0.001;" x1="0" y1="0.22269650703481947" x2="1" y2="0.22269650703481947"></line><line class="gridLine" style="stroke: gray; stroke-width: 0.001;" x1="0" y1="0.16290393065288256" x2="1" y2="0.16290393065288256"></line><line class="gridLine" style="stroke: gray; stroke-width: 0.001;" x1="0" y1="0.10311135427094553" x2="1" y2="0.10311135427094553"></line><line class="gridLine" style="stroke: gray; stroke-width: 0.001;" x1="0" y1="0.04331877788900862" x2="1" y2="0.04331877788900862"></line><line class="gridLine" style="stroke: gray; stroke-width: 0.001;" x1="0.02005959650667002" y1="0" x2="0.02005959650667002" y2="1"></line><line class="gridLine" style="stroke: gray; stroke-width: 0.001;" x1="0.04011919301334004" y1="0" x2="0.04011919301334004" y2="1"></line><line class="gridLine" style="stroke: gray; stroke-width: 0.001;" x1="0.06017878952001006" y1="0" x2="0.06017878952001006" y2="1"></line><line class="gridLine" style="stroke: gray; stroke-width: 0.001;" x1="0.08023838602668008" y1="0" x2="0.08023838602668008" y2="1"></line><line class="gridLine" style="stroke: gray; stroke-width: 0.001;" x1="0.10029798253335011" y1="0" x2="0.10029798253335011" y2="1"></line><line class="gridLine" style="stroke: gray; stroke-width: 0.001;" x1="0.12035757904002012" y1="0" x2="0.12035757904002012" y2="1"></line><line class="gridLine" style="stroke: gray; stroke-width: 0.001;" x1="0.14041717554669014" y1="0" x2="0.14041717554669014" y2="1"></line><line class="gridLine" style="stroke: gray; stroke-width: 0.001;" x1="0.16047677205336017" y1="0" x2="0.16047677205336017" y2="1"></line><line class="gridLine" style="stroke: gray; stroke-width: 0.001;" x1="0.1805363685600302" y1="0" x2="0.1805363685600302" y2="1"></line><line class="gridLine" style="stroke: gray; stroke-width: 0.001;" x1="0.20059596506670022" y1="0" x2="0.20059596506670022" y2="1"></line><line class="gridLine" style="stroke: gray; stroke-width: 0.001;" x1="0.22065556157337024" y1="0" x2="0.22065556157337024" y2="1"></line><line class="gridLine" style="stroke: gray; stroke-width: 0.001;" x1="0.24071515808004024" y1="0" x2="0.24071515808004024" y2="1"></line><line class="gridLine" style="stroke: gray; stroke-width: 0.001;" x1="0.2607747545867103" y1="0" x2="0.2607747545867103" y2="1"></line><line class="gridLine" style="stroke: gray; stroke-width: 0.001;" x1="0.2808343510933803" y1="0" x2="0.2808343510933803" y2="1"></line><line class="gridLine" style="stroke: gray; stroke-width: 0.001;" x1="0.3008939476000503" y1="0" x2="0.3008939476000503" y2="1"></line><line class="gridLine" style="stroke: gray; stroke-width: 0.001;" x1="0.32095354410672033" y1="0" x2="0.32095354410672033" y2="1"></line><line class="gridLine" style="stroke: gray; stroke-width: 0.001;" x1="0.34101314061339033" y1="0" x2="0.34101314061339033" y2="1"></line><line class="gridLine" style="stroke: gray; stroke-width: 0.001;" x1="0.3610727371200604" y1="0" x2="0.3610727371200604" y2="1"></line><line class="gridLine" style="stroke: gray; stroke-width: 0.001;" x1="0.3811323336267304" y1="0" x2="0.3811323336267304" y2="1"></line><line class="gridLine" style="stroke: gray; stroke-width: 0.001;" x1="0.40119193013340043" y1="0" x2="0.40119193013340043" y2="1"></line><line class="gridLine" style="stroke: gray; stroke-width: 0.001;" x1="0.42125152664007043" y1="0" x2="0.42125152664007043" y2="1"></line><line class="gridLine" style="stroke: gray; stroke-width: 0.001;" x1="0.4413111231467405" y1="0" x2="0.4413111231467405" y2="1"></line><line class="gridLine" style="stroke: gray; stroke-width: 0.001;" x1="0.4613707196534105" y1="0" x2="0.4613707196534105" y2="1"></line><line class="gridLine" style="stroke: gray; stroke-width: 0.001;" x1="0.4814303161600805" y1="0" x2="0.4814303161600805" y2="1"></line><line class="gridLine" style="stroke: gray; stroke-width: 0.001;" x1="0.5014899126667505" y1="0" x2="0.5014899126667505" y2="1"></line><line class="gridLine" style="stroke: gray; stroke-width: 0.001;" x1="0.5215495091734206" y1="0" x2="0.5215495091734206" y2="1"></line><line class="gridLine" style="stroke: gray; stroke-width: 0.001;" x1="0.5416091056800906" y1="0" x2="0.5416091056800906" y2="1"></line><line class="gridLine" style="stroke: gray; stroke-width: 0.001;" x1="0.5616687021867606" y1="0" x2="0.5616687021867606" y2="1"></line><line class="gridLine" style="stroke: gray; stroke-width: 0.001;" x1="0.5817282986934306" y1="0" x2="0.5817282986934306" y2="1"></line><line class="gridLine" style="stroke: gray; stroke-width: 0.001;" x1="0.6017878952001006" y1="0" x2="0.6017878952001006" y2="1"></line><line class="gridLine" style="stroke: gray; stroke-width: 0.001;" x1="0.6218474917067707" y1="0" x2="0.6218474917067707" y2="1"></line><line class="gridLine" style="stroke: gray; stroke-width: 0.001;" x1="0.6419070882134407" y1="0" x2="0.6419070882134407" y2="1"></line><line class="gridLine" style="stroke: gray; stroke-width: 0.001;" x1="0.6619666847201107" y1="0" x2="0.6619666847201107" y2="1"></line><line class="gridLine" style="stroke: gray; stroke-width: 0.001;" x1="0.6820262812267807" y1="0" x2="0.6820262812267807" y2="1"></line><line class="gridLine" style="stroke: gray; stroke-width: 0.001;" x1="0.7020858777334508" y1="0" x2="0.7020858777334508" y2="1"></line><line class="gridLine" style="stroke: gray; stroke-width: 0.001;" x1="0.7221454742401208" y1="0" x2="0.7221454742401208" y2="1"></line><line class="gridLine" style="stroke: gray; stroke-width: 0.001;" x1="0.7422050707467908" y1="0" x2="0.7422050707467908" y2="1"></line><line class="gridLine" style="stroke: gray; stroke-width: 0.001;" x1="0.7622646672534608" y1="0" x2="0.7622646672534608" y2="1"></line><line class="gridLine" style="stroke: gray; stroke-width: 0.001;" x1="0.7823242637601308" y1="0" x2="0.7823242637601308" y2="1"></line><line class="gridLine" style="stroke: gray; stroke-width: 0.001;" x1="0.8023838602668009" y1="0" x2="0.8023838602668009" y2="1"></line><line class="gridLine" style="stroke: gray; stroke-width: 0.001;" x1="0.8224434567734709" y1="0" x2="0.8224434567734709" y2="1"></line><line class="gridLine" style="stroke: gray; stroke-width: 0.001;" x1="0.8425030532801409" y1="0" x2="0.8425030532801409" y2="1"></line><line class="gridLine" style="stroke: gray; stroke-width: 0.001;" x1="0.8625626497868109" y1="0" x2="0.8625626497868109" y2="1"></line><line class="gridLine" style="stroke: gray; stroke-width: 0.001;" x1="0.882622246293481" y1="0" x2="0.882622246293481" y2="1"></line><line class="gridLine" style="stroke: gray; stroke-width: 0.001;" x1="0.902681842800151" y1="0" x2="0.902681842800151" y2="1"></line><line class="gridLine" style="stroke: gray; stroke-width: 0.001;" x1="0.922741439306821" y1="0" x2="0.922741439306821" y2="1"></line><line class="gridLine" style="stroke: gray; stroke-width: 0.001;" x1="0.942801035813491" y1="0" x2="0.942801035813491" y2="1"></line><line class="gridLine" style="stroke: gray; stroke-width: 0.001;" x1="0.962860632320161" y1="0" x2="0.962860632320161" y2="1"></line><line class="gridLine" style="stroke: gray; stroke-width: 0.001;" x1="0.982920228826831" y1="0" x2="0.982920228826831" y2="1"></line><path style="stroke:black;
        stroke-width:0.005;
        fill:none;" d="M 0 0.7010371180903152 L 0.00909090909090909 0.6742402939477887 L 0.01818181818181818 0.6480452163297394 L 0.02727272727272727 0.6224518852361676 L 0.03636363636363636 0.5974603006670728 L 0.04545454545454545 0.5730704626224552 L 0.05454545454545454 0.549282371102315 L 0.06363636363636363 0.5260960261066521 L 0.07272727272727272 0.5035114276354662 L 0.0818181818181818 0.4815285756887576 L 0.0909090909090909 0.46014747026652636 L 0.1 0.4393681113687722 L 0.10909090909090909 0.41919049899549554 L 0.11818181818181817 0.39961463314669576 L 0.12727272727272726 0.3806405138223735 L 0.13636363636363635 0.36226814102252847 L 0.14545454545454545 0.3444975147471605 L 0.1545454545454545 0.32732863499626996 L 0.1636363636363636 0.3107615017698565 L 0.17272727272727273 0.29479611506792036 L 0.1818181818181818 0.2794324748904614 L 0.1909090909090909 0.26467058123747966 L 0.2 0.2505104341089752 L 0.20909090909090908 0.2369520335049481 L 0.21818181818181817 0.22399537942539804 L 0.22727272727272724 0.2116404718703252 L 0.23636363636363633 0.19988731083972977 L 0.24545454545454545 0.18873589633361165 L 0.2545454545454545 0.17818622835197062 L 0.2636363636363636 0.1682383068948068 L 0.2727272727272727 0.15889213196212038 L 0.2818181818181818 0.15014770355391094 L 0.2909090909090909 0.14200502167017903 L 0.3 0.134464086310924 L 0.309090909090909 0.1275248974761467 L 0.3181818181818182 0.12118745516584606 L 0.3272727272727272 0.11545175938002294 L 0.3363636363636363 0.11031781011867703 L 0.34545454545454546 0.10578560738180864 L 0.3545454545454545 0.10185515116941724 L 0.3636363636363636 0.09852644148150325 L 0.37272727272727274 0.09579947831806623 L 0.3818181818181818 0.09367426167910631 L 0.3909090909090909 0.09215079156462402 L 0.4 0.09122906797461872 L 0.40909090909090906 0.09090909090909105 L 0.41818181818181815 0.09119086036804014 L 0.4272727272727272 0.09207437635146654 L 0.43636363636363634 0.09355963885937046 L 0.44545454545454544 0.09564664789175159 L 0.4545454545454545 0.09833540344860958 L 0.4636363636363636 0.10162590552994522 L 0.47272727272727266 0.10551815413575794 L 0.48181818181818176 0.11001214926604774 L 0.4909090909090909 0.11510789092081497 L 0.49999999999999994 0.1208053791000595 L 0.509090909090909 0.12710461380378113 L 0.5181818181818182 0.13400559503198006 L 0.5272727272727272 0.1415083227846563 L 0.5363636363636364 0.1496127970618094 L 0.5454545454545454 0.1583190178634405 L 0.5545454545454545 0.16762698518954777 L 0.5636363636363636 0.17753669904013314 L 0.5727272727272726 0.18804815941519548 L 0.5818181818181818 0.19916136631473524 L 0.5909090909090908 0.21087631973875187 L 0.6 0.2231930196872458 L 0.609090909090909 0.23611146616021705 L 0.618181818181818 0.24963165915766605 L 0.6272727272727272 0.26375359867959147 L 0.6363636363636364 0.2784772847259944 L 0.6454545454545454 0.293802717296875 L 0.6545454545454544 0.3097298963922318 L 0.6636363636363636 0.32625882201206735 L 0.6727272727272726 0.34338949415637854 L 0.6818181818181817 0.3611219128251679 L 0.6909090909090909 0.37945607801843484 L 0.7 0.3983919897361782 L 0.709090909090909 0.41792964797839927 L 0.7181818181818181 0.4380690527450979 L 0.7272727272727272 0.45881020403627315 L 0.7363636363636362 0.4801531018519247 L 0.7454545454545455 0.5020977461920555 L 0.7545454545454545 0.5246441370566626 L 0.7636363636363636 0.5477922744457464 L 0.7727272727272727 0.5715421583593081 L 0.7818181818181817 0.5958937887973472 L 0.7909090909090908 0.6208471657598631 L 0.8 0.6464022892468566 L 0.8090909090909091 0.6725591592583271 L 0.8181818181818181 0.6993177757942752 L 0.8272727272727272 0.7266781388546995 L 0.8363636363636363 0.7546402484396022 L 0.8454545454545453 0.783204104548982 L 0.8545454545454544 0.8123697071828381 L 0.8636363636363636 0.8421370563411725 L 0.8727272727272727 0.8725061520239836 L 0.8818181818181817 0.9034769942312715 L 0.8909090909090909 0.9350495829630384 L 0.8999999999999999 0.9672239182192809 L 0.909090909090909 1.0000000000000009"></path><circle cx="0.4093795205442861" cy="0.09090878766238708" r="0.01"></circle><line class="labelLine" style="stroke: black;stroke-width: 0.002" x1="0.4093795205442861" y1="0.09090878766238708" x2="0.4593795205442861" y2="0.040908787662387036"></line><text text-anchor="start" font-size="0.03px" class="pointLabel" x="0.4593795205442861" y="0.040908787662387036">Apogee (20.41,15.20)</text></svg>