<svg xmlns="http://www.w3.org/2000/svg" xmlns:xlink="http://www.w3.org/1999/xlink" xmlns:sketch="http://www.bohemiancoding.com/sketch/ns" id="canvas" viewBox="0 0 1 1"><rect x="0" y="0" width="1" height="1" style="stroke: #FFFFFF;"></rect><line class="gridLine" style="stroke: gray; stroke-width: 0.001;" x1="0" y1="0.9402072613446133" x2="1" y2="0.9402072613446133"></line><line class="gridLine" style="stroke: gray; stroke-width: 0.001;" x1="0" y1="0.8804145226892266" x2="1" y2="0.8804145226892266"></line><line class="gridLine" style="stroke: gray; stroke-width: 0.001;" x1="0" y1="0.82062178403384" x2="1" y2="0.82062178403384"></line><line class="gridLine" style="stroke: gray; stroke-width: 0.001;" x1="0" y1="0.7608290453784533" x2="1" y2="0.7608290453784533"></line><line class="gridLine" style="stroke: gray; stroke-width: 0.001;" x1="0" y1="0.7010363067230666" x2="1" y2="0.7010363067230666"></line><line class="gridLine" style="stroke: gray; stroke-width: 0.001;" x1="0" y1="0.64124356806768" x2="1" y2="0.64124356806768"></line><line class="gridLine" style="stroke: gray; stroke-width: 0.001;" x1="0" y1="0.5814508294122933" x2="1" y2="0.5814508294122933"></line><line class="gridLine" style="stroke: gray; stroke-width: 0.001;" x1="0" y1="0.5216580907569066" x2="1" y2="0.5216580907569066"></line><line class="gridLine" style="stroke: gray; stroke-width: 0.001;" x1="0" y1="0.4618653521015199" x2="1" y2="0.4618653521015199"></line><line class="gridLine" style="stroke: gray; stroke-width: 0.001;" x1="0" y1="0.4020726134461332" x2="1" y2="0.4020726134461332"></line><line class="gridLine" style="stroke: gray; stroke-width: 0.001;" x1="0" y1="0.3422798747907466" x2="1" y2="0.3422798747907466"></line><line class="gridLine" style="stroke: gray; stroke-width: 0.001;" x1="0" y1="0.2824871361353599" x2="1" y2="0.2824871361353599"></line><line class="gridLine" style="stroke: gray; stroke-width: 0.001;" x1="0" y1="0.22269439747997322" x2="1" y2="0.22269439747997322"></line><line class="gridLine" style="stroke: gray; stroke-width: 0.001;" x1="0" y1="0.16290165882458651" x2="1" y2="0.16290165882458651"></line><line class="gridLine" style="stroke: gray; stroke-width: 0.001;" x1="0" y1="0.10310892016919992" x2="1" y2="0.10310892016919992"></line><line class="gridLine" style="stroke: gray; stroke-width: 0.001;" x1="0" y1="0.04331618151381322" x2="1" y2="0.04331618151381322"></line><line class="gridLine" style="stroke: gray; stroke-width: 0.001;" x1="0.08757824884648689" y1="0" x2="0.08757824884648689" y2="1"></line><line class="gridLine" style="stroke: gray; stroke-width: 0.001;" x1="0.17515649769297378" y1="0" x2="0.17515649769297378" y2="1"></line><line class="gridLine" style="stroke: gray; stroke-width: 0.001;" x1="0.26273474653946066" y1="0" x2="0.26273474653946066" y2="1"></line><line class="gridLine" style="stroke: gray; stroke-width: 0.001;" x1="0.35031299538594757" y1="0" x2="0.35031299538594757" y2="1"></line><line class="gridLine" style="stroke: gray; stroke-width: 0.001;" x1="0.4378912442324344" y1="0" x2="0.4378912442324344" y2="1"></line><line class="gridLine" style="stroke: gray; stroke-width: 0.001;" x1="0.5254694930789213" y1="0" x2="0.5254694930789213" y2="1"></line><line class="gridLine" style="stroke: gray; stroke-width: 0.001;" x1="0.6130477419254082" y1="0" x2="0.6130477419254082" y2="1"></line><line class="gridLine" style="stroke: gray; stroke-width: 0.001;" x1="0.7006259907718951" y1="0" x2="0.7006259907718951" y2="1"></line><line class="gridLine" style="stroke: gray; stroke-width: 0.001;" x1="0.7882042396183819" y1="0" x2="0.7882042396183819" y2="1"></line><line class="gridLine" style="stroke: gray; stroke-width: 0.001;" x1="0.8757824884648688" y1="0" x2="0.8757824884648688" y2="1"></line><line class="gridLine" style="stroke: gray; stroke-width: 0.001;" x1="0.9633607373113557" y1="0" x2="0.9633607373113557" y2="1"></line><path style="stroke:black;
        stroke-width:0.005;
        fill:none;" d="M 0 0.7010363067230666 L 0.0012385434728758762 0.6926096349712201 L 0.0024770869457517524 0.6842415601032557 L 0.0037156304186276284 0.6759320821191735 L 0.004954173891503505 0.6676812010189737 L 0.00619271736437938 0.6594889168026562 L 0.007431260837255256 0.651355229470221 L 0.008669804310131132 0.643280139021668 L 0.009908347783007008 0.6352636454569973 L 0.011146891255882883 0.6273057487762089 L 0.012385434728758759 0.6194064489793027 L 0.013623978201634634 0.6115657460662789 L 0.01486252167451051 0.6037836400371374 L 0.016101065147386386 0.596060130891878 L 0.01733960862026226 0.588395218630501 L 0.018578152093138137 0.5807889032530064 L 0.019816695566014016 0.5732411847593939 L 0.02105523903888989 0.5657520631496638 L 0.02229378251176577 0.5583215384238158 L 0.02353232598464165 0.5509496105818502 L 0.024770869457517525 0.5436362796237669 L 0.026009412930393404 0.5363815455495659 L 0.02724795640326928 0.5291854083592471 L 0.02848649987614516 0.5220478680528107 L 0.029725043349021037 0.5149689246302562 L 0.030963586821896913 0.5079485780915842 L 0.03220213029477279 0.5009868284367945 L 0.03344067376764867 0.4940836756658872 L 0.03467921724052455 0.48723911977886203 L 0.03591776071340042 0.4804531607757192 L 0.0371563041862763 0.4737257986564586 L 0.03839484765915217 0.4670570334210803 L 0.039633391132028045 0.4604468650695843 L 0.04087193460490392 0.45389529360197045 L 0.042110478077779796 0.447402319018239 L 0.04334902155065567 0.4409679413183898 L 0.04458756502353154 0.4345921605024229 L 0.04582610849640741 0.4282749765703382 L 0.04706465196928329 0.42201638952213594 L 0.048303195442159164 0.4158163993578159 L 0.049541738915035036 0.40967500607737817 L 0.05078028238791091 0.40359220968082254 L 0.05201882586078679 0.39756801016814924 L 0.05325736933366266 0.39160240753935827 L 0.05449591280653853 0.3856954017944496 L 0.0557344562794144 0.37984699293342317 L 0.056972999752290275 0.37405718095627916 L 0.058211543225166154 0.36832596586301725 L 0.059450086698042026 0.36265334765363777 L 0.0606886301709179 0.3570393263281405 L 0.06192717364379377 0.35148390188652545 L 0.06316571711666964 0.3459870743287927 L 0.06440426058954551 0.3405488436549422 L 0.0656428040624214 0.3351692098649741 L 0.06688134753529727 0.32984817295888813 L 0.06811989100817314 0.3245857329366846 L 0.06935843448104902 0.31938188979836324 L 0.0705969779539249 0.3142366435439242 L 0.07183552142680077 0.3091499941733675 L 0.07307406489967665 0.30412194168669304 L 0.07431260837255252 0.29915248608390077 L 0.07555115184542839 0.2942416273649908 L 0.07678969531830426 0.2893893655299632 L 0.07802823879118014 0.2845957005788178 L 0.07926678226405601 0.2798606325115547 L 0.0805053257369319 0.2751841613281739 L 0.08174386920980777 0.27056628702867536 L 0.08298241268268364 0.26600700961305923 L 0.08422095615555951 0.2615063290813252 L 0.08545949962843538 0.2570642454334734 L 0.08669804310131125 0.252680758669504 L 0.08793658657418713 0.24835586878941684 L 0.089175130047063 0.244089575793212 L 0.09041367351993888 0.23988187968088936 L 0.09165221699281476 0.23573278045244916 L 0.09289076046569063 0.23164227810789118 L 0.0941293039385665 0.2276103726472154 L 0.09536784741144237 0.22363706407042194 L 0.09660639088431824 0.2197223523775107 L 0.09784493435719412 0.21586623756848178 L 0.09908347783006999 0.21206871964333518 L 0.10032202130294587 0.2083297986020708 L 0.10156056477582175 0.20464947444468873 L 0.10279910824869762 0.201027747171189 L 0.10403765172157349 0.19746461678157157 L 0.10527619519444936 0.19396008327583625 L 0.10651473866732523 0.19051414665398325 L 0.1077532821402011 0.18712680691601258 L 0.10899182561307698 0.18379806406192412 L 0.11023036908595286 0.18052791809171798 L 0.11146891255882874 0.17731636900539416 L 0.11270745603170461 0.17416341680295266 L 0.11394599950458048 0.17106906148439338 L 0.11518454297745635 0.16803330304971642 L 0.11642308645033222 0.16505614149892167 L 0.1176616299232081 0.16213757683200913 L 0.11890017339608397 0.15927760904897892 L 0.12013871686895984 0.15647623814983103 L 0.12137726034183573 0.15373346413456546 L 0.1226158038147116 0.1510492870031821 L 0.12385434728758747 0.14842370675568106 L 0.12509289076046334 0.14585672339206235 L 0.12633143423333923 0.14334833691232596 L 0.1275699777062151 0.14089854731647167 L 0.12880852117909097 0.1385073546044997 L 0.13004706465196683 0.13617475877640994 L 0.13128560812484272 0.13390075983220262 L 0.13252415159771858 0.1316853577718775 L 0.13376269507059446 0.12952855259543472 L 0.13500123854347032 0.12743034430287414 L 0.1362397820163462 0.125390732894196 L 0.1374783254892221 0.12340971836940007 L 0.13871686896209795 0.12148730072848624 L 0.13995541243497384 0.11962347997145484 L 0.1411939559078497 0.11781825609830565 L 0.14243249938072558 0.11607162910903879 L 0.14367104285360144 0.11438359900365425 L 0.14490958632647732 0.11275416578215192 L 0.1461481297993532 0.11118332944453191 L 0.14738667327222907 0.10967108999079422 L 0.14862521674510495 0.10821744742093864 L 0.1498637602179808 0.10682240173496549 L 0.1511023036908567 0.10548595293287455 L 0.15234084716373256 0.10420810101466582 L 0.15357939063660844 0.10298884598033953 L 0.1548179341094843 0.10182818782989544 L 0.1560564775823602 0.10072612656333368 L 0.15729502105523607 0.09968266218065414 L 0.15853356452811193 0.09869779468185691 L 0.15977210800098782 0.0977715240669419 L 0.16101065147386368 0.0969038503359092 L 0.16224919494673956 0.09609477348875883 L 0.16348773841961542 0.09534429352549068 L 0.1647262818924913 0.09465241044610484 L 0.16596482536536716 0.09401912425060122 L 0.16720336883824305 0.09344443493898003 L 0.16844191231111894 0.09292834251124105 L 0.1696804557839948 0.09247084696738428 L 0.17091899925687068 0.09207194830740983 L 0.17215754272974654 0.0917316465313176 L 0.17339608620262242 0.09144994163910769 L 0.17463462967549828 0.0912268336307801 L 0.17587317314837417 0.09106232250633473 L 0.17711171662125005 0.09095640826577167 L 0.1783502600941259 0.09090909090909094 L 0.1795888035670018 0.09092037043629253 L 0.18082734703987766 0.09099024684737633 L 0.18206589051275354 0.09111872014234235 L 0.1833044339856294 0.09130579032119068 L 0.1845429774585053 0.09155145738392123 L 0.18578152093138114 0.0918557213305341 L 0.18702006440425703 0.0922185821610293 L 0.18825860787713292 0.09264003987540681 L 0.18949715135000877 0.09312009447366654 L 0.19073569482288466 0.09365874595580859 L 0.19197423829576052 0.09425599432183285 L 0.1932127817686364 0.09491183957173932 L 0.19445132524151226 0.09562628170552823 L 0.19568986871438815 0.09639932072319923 L 0.19692841218726403 0.09723095662475267 L 0.1981669556601399 0.09812118941018833 L 0.19940549913301578 0.09907001907950641 L 0.20064404260589164 0.1000774456327066 L 0.20188258607876752 0.10114346906978922 L 0.20312112955164338 0.10226808939075394 L 0.20435967302451927 0.10345130659560098 L 0.20559821649739513 0.10469312068433034 L 0.206836759970271 0.10599353165694192 L 0.2080753034431469 0.10735253951343582 L 0.20931384691602276 0.10877014425381204 L 0.21055239038889864 0.11024634587807058 L 0.2117909338617745 0.11178114438621134 L 0.21302947733465039 0.11337453977823442 L 0.21426802080752624 0.11502653205413971 L 0.21550656428040213 0.11673712121392721 L 0.216745107753278 0.11850630725759714 L 0.21798365122615387 0.12033409018514929 L 0.21922219469902976 0.12222046999658365 L 0.22046073817190562 0.12416544669190044 L 0.2216992816447815 0.12616902027109944 L 0.22293782511765736 0.12823119073418066 L 0.22417636859053325 0.1303519580811442 L 0.2254149120634091 0.13253132231198994 L 0.226653455536285 0.134769283426718 L 0.22789199900916088 0.1370658414253284 L 0.22913054248203674 0.139420996307821 L 0.23036908595491262 0.14183474807419594 L 0.23160762942778848 0.1443070967244532 L 0.23284617290066437 0.14683804225859276 L 0.23408471637354022 0.14942758467661454 L 0.2353232598464161 0.15207572397851854 L 0.23656180331929197 0.15478246016430486 L 0.23780034679216785 0.1575477932339734 L 0.23903889026504374 0.16037172318752435 L 0.2402774337379196 0.16325425002495753 L 0.24151597721079548 0.1661953737462729 L 0.24275452068367134 0.16919509435147062 L 0.24399306415654723 0.17225341184055076 L 0.2452316076294231 0.175370326213513 L 0.24647015110229897 0.17854583747035757 L 0.24770869457517483 0.18177994561108435 L 0.24894723804805072 0.18507265063569345 L 0.2501857815209266 0.18842395254418487 L 0.25142432499380246 0.1918338513365585 L 0.25266286846667835 0.19530234701281446 L 0.25390141193955423 0.19882943957295274 L 0.25513995541243006 0.20241512901697334 L 0.25637849888530595 0.20605941534487615 L 0.25761704235818184 0.20976229855666118 L 0.2588555858310577 0.21352377865232852 L 0.2600941293039336 0.21734385563187808 L 0.26133267277680944 0.22122252949530996 L 0.2625712162496853 0.22515980024262416 L 0.2638097597225612 0.2291556678738207 L 0.2650483031954371 0.23321013238889943 L 0.2662868466683129 0.2373231937878605 L 0.2675253901411888 0.24149485207070376 L 0.2687639336140647 0.24572510723742935 L 0.2700024770869406 0.25001395928803716 L 0.27124102055981647 0.2543614082225273 L 0.2724795640326923 0.2587674540408996 L 0.2737181075055682 0.2632320967431544 L 0.2749566509784441 0.2677553363292914 L 0.27619519445131996 0.2723371727993107 L 0.2774337379241958 0.2769776061532122 L 0.2786722813970717 0.28167663639099605 L 0.27991082486994756 0.2864342635126621 L 0.28114936834282345 0.29125048751821037 L 0.28238791181569933 0.29612530840764106 L 0.2836264552885752 0.301058726180954 L 0.2848649987614511 0.3060507408381492 L 0.28610354223432694 0.31110135237922665 L 0.2873420857072028 0.3162105608041865 L 0.2885806291800787 0.3213783661130286 L 0.2898191726529546 0.3266047683057528 L 0.2910577161258305 0.3318897673823594 L 0.2922962595987063 0.33723336334284826 L 0.2935348030715822 0.3426355561872194 L 0.2947733465444581 0.3480963459154729 L 0.29601189001733397 0.3536157325276086 L 0.29725043349020985 0.3591937160236266 L 0.2984889769630857 0.36483029640352693 L 0.29972752043596157 0.3705254736673096 L 0.30096606390883746 0.37627924781497435 L 0.30220460738171334 0.38209161884652143 L 0.30344315085458917 0.38796258676195083 L 0.30468169432746506 0.39389215156126245 L 0.30592023780034094 0.3998803132444564 L 0.30715878127321683 0.40592707181153265 L 0.3083973247460927 0.41203242726249123 L 0.30963586821896855 0.418196379597332 L 0.31087441169184443 0.42441892881605514 L 0.3121129551647203 0.43070007491866047 L 0.3133514986375962 0.437039817905148 L 0.31459004211047203 0.44343815777551787 L 0.3158285855833479 0.44989509452977006 L 0.3170671290562238 0.45641062816790456 L 0.3183056725290997 0.4629847586899213 L 0.3195442160019756 0.4696174860958203 L 0.3207827594748514 0.4763088103856017 L 0.3220213029477273 0.4830587315592654 L 0.3232598464206032 0.48986724961681116 L 0.32449838989347907 0.49673436455823927 L 0.3257369333663549 0.5036600763835497 L 0.3269754768392308 0.5106443850927423 L 0.32821402031210667 0.5176872906858173 L 0.32945256378498256 0.5247887931627746 L 0.33069110725785844 0.5319488925236142 L 0.33192965073073427 0.5391675887683361 L 0.33316819420361016 0.5464448818969403 L 0.33440673767648604 0.5537807719094268 L 0.33564528114936193 0.5611752588057954 L 0.33688382462223776 0.5686283425860464 L 0.33812236809511365 0.5761400232501797 L 0.33936091156798953 0.5837103007981952 L 0.3405994550408654 0.5913391752300932 L 0.3418379985137413 0.5990266465458732 L 0.34307654198661713 0.6067727147455355 L 0.344315085459493 0.6145773798290802 L 0.3455536289323689 0.6224406417965072 L 0.3467921724052448 0.6303625006478164 L 0.3480307158781207 0.638342956383008 L 0.3492692593509965 0.6463820090020818 L 0.3505078028238724 0.6544796585050379 L 0.3517463462967483 0.6626359048918762 L 0.35298488976962417 0.6708507481625968 L 0.3542234332425 0.6791241883171997 L 0.3554619767153759 0.6874562253556848 L 0.35670052018825177 0.6958468592780523 L 0.35793906366112765 0.704296090084302 L 0.35917760713400354 0.7128039177744341 L 0.36041615060687937 0.7213703423484483 L 0.36165469407975526 0.729995363806345 L 0.36289323755263114 0.7386789821481239 L 0.36413178102550703 0.747421197373785 L 0.36537032449838286 0.7562220094833284 L 0.36660886797125875 0.765081418476754 L 0.36784741144413463 0.773999424354062 L 0.3690859549170105 0.7829760271152524 L 0.3703244983898864 0.7920112267603249 L 0.37156304186276223 0.8011050232892797 L 0.3728015853356381 0.8102574167021168 L 0.374040128808514 0.8194684069988362 L 0.3752786722813899 0.8287379941794377 L 0.3765172157542657 0.8380661782439217 L 0.3777557592271416 0.8474529591922879 L 0.3789943027000175 0.8568983370245364 L 0.3802328461728934 0.8664023117406672 L 0.38147138964576927 0.8759648833406802 L 0.3827099331186451 0.8855860518245756 L 0.383948476591521 0.8952658171923532 L 0.38518702006439687 0.9050041794440131 L 0.38642556353727275 0.9148011385795553 L 0.3876641070101486 0.9246566945989797 L 0.38890265048302447 0.9345708475022865 L 0.39014119395590036 0.9445435972894755 L 0.39137973742877624 0.9545749439605467 L 0.39261828090165213 0.9646648875155002 L 0.39385682437452796 0.974813427954336 L 0.39509536784740384 0.9850205652770542 L 0.39633391132027973 0.9952862994836545 L 0.3975724547931556 0.996647429873356 L 0.3988109982660315 0.9905154345748477 L 0.40004954173890733 0.9844420361602217 L 0.4012880852117832 0.978427234629478 L 0.4025266286846591 0.9724710299826165 L 0.403765172157535 0.9665734222196374 L 0.4050037156304108 0.9607344113405405 L 0.4062422591032867 0.9549539973453258 L 0.4074808025761626 0.9492321802339935 L 0.4087193460490385 0.9435689600065434 L 0.40995788952191436 0.9379643366629757 L 0.4111964329947902 0.9324183102032901 L 0.4124349764676661 0.926930880627487 L 0.41367351994054197 0.921502047935566 L 0.41491206341341785 0.9161318121275274 L 0.4161506068862937 0.910820173203371 L 0.41738915035916957 0.905567131163097 L 0.41862769383204546 0.9003726860067052 L 0.41986623730492134 0.8952368377341956 L 0.4211047807777972 0.8901595863455684 L 0.42234332425067306 0.8851409318408233 L 0.42358186772354894 0.8801808742199606 L 0.42482041119642483 0.8752794134829802 L 0.4260589546693007 0.870436549629882 L 0.42729749814217655 0.8656522826606662 L 0.42853604161505243 0.8609266125753327 L 0.4297745850879283 0.8562595393738813 L 0.4310131285608042 0.8516510630563123 L 0.4322516720336801 0.8471011836226255 L 0.4334902155065559 0.8426099010728211 L 0.4347287589794318 0.8381772154068989 L 0.4359673024523077 0.833803126624859 L 0.4372058459251836 0.8294876347267014 L 0.4384443893980594 0.825230739712426 L 0.4396829328709353 0.8210324415820329 L 0.4409214763438112 0.8168927403355222 L 0.44216001981668707 0.8128116359728936 L 0.44339856328956295 0.8087891284941474 L 0.4446371067624388 0.8048252178992834 L 0.44587565023531467 0.8009199041883017 L 0.44711419370819055 0.7970731873612024 L 0.44835273718106644 0.7932850674179852 L 0.44959128065394227 0.7895555443586504 L 0.45082982412681816 0.7858846181831979 L 0.45206836759969404 0.7822722888916276 L 0.45330691107256993 0.7787185564839396 L 0.4545454545454458 0.7752234209601339 L 0.45578399801832165 0.7717868823202104 L 0.45702254149119753 0.7684089405641692 L 0.4582610849640734 0.7650895956920103 L 0.4594996284369493 0.7618288477037337 L 0.4607381719098252 0.7586266965993393 L 0.461976715382701 0.7554831423788273 L 0.4632152588555769 0.7523981850421976 L 0.4644538023284528 0.7493718245894501 L 0.4656923458013287 0.7464040610205849 L 0.4669308892742045 0.7434948943356019 L 0.4681694327470804 0.7406443245345012 L 0.4694079762199563 0.7378523516172828 L 0.47064651969283217 0.7351189755839468 L 0.47188506316570805 0.732444196434493 L 0.4731236066385839 0.7298280141689214 L 0.47436215011145977 0.7272704287872321 L 0.47560069358433565 0.7247714402894252 L 0.47683923705721154 0.7223310486755005 L 0.47807778053008737 0.7199492539454581 L 0.47931632400296326 0.717626056099298 L 0.48055486747583914 0.71536145513702 L 0.48179341094871503 0.7131554510586244 L 0.4830319544215909 0.7110080438641111 L 0.48427049789446674 0.7089192335534801 L 0.48550904136734263 0.7068890201267313 L 0.4867475848402185 0.7049174035838648 L 0.4879861283130944 0.7030043839248807 L 0.48922467178597023 0.7011499611497787 L 0.4904632152588461 0.699354135258559 L 0.491701758731722 0.6976169062512217 L 0.4929403022045979 0.6959382741277667 L 0.4941788456774738 0.6943182388881939 L 0.4954173891503496 0.6927568005325033 L 0.4966559326232255 0.6912539590606952 L 0.4978944760961014 0.6898097144727692 L 0.49913301956897727 0.6884240667687255 L 0.5003715630418532 0.6870970159485641 L 0.501610106514729 0.6858285620122849 L 0.5028486499876049 0.6846187049598881 L 0.5040871934604807 0.6834674447913736 L 0.5053257369333566 0.6823747815067412 L 0.5065642804062325 0.6813407151059911 L 0.5078028238791084 0.6803652455891235 L 0.5090413673519842 0.679448372956138 L 0.5102799108248601 0.6785900972070349 L 0.511518454297736 0.677790418341814 L 0.5127569977706119 0.6770493363604753 L 0.5139955412434878 0.676366851263019 L 0.5152340847163636 0.6757429630494449 L 0.5164726281892394 0.6751776717197532 L 0.5177111716621153 0.6746709772739437 L 0.5189497151349912 0.6742228797120164 L 0.5201882586078671 0.6738333790339714 L 0.521426802080743 0.6735024752398089 L 0.5226653455536189 0.6732301683295284 L 0.5239038890264948 0.6730164583031304 L 0.5251424324993706 0.6728613451606145 L 0.5263809759722464 0.672764828901981 L 0.5276195194451223 0.6727269095272297 L 0.5288580629179982 0.6727475870363606 L 0.5300966063908741 0.672826861429374 L 0.53133514986375 0.6729647327062696 L 0.5325736933366259 0.6731612008670473 L 0.5338122368095017 0.6734162659117076 L 0.5350507802823776 0.6737299278402499 L 0.5362893237552535 0.6741021866526746 L 0.5375278672281293 0.6745330423489816 L 0.5387664107010052 0.6750224949291708 L 0.5400049541738811 0.6755705443932423 L 0.5412434976467569 0.6761771907411962 L 0.5424820411196328 0.6768424339730322 L 0.5437205845925087 0.6775662740887506 L 0.5449591280653846 0.6783487110883513 L 0.5461976715382605 0.679189744971834 L 0.5474362150111364 0.6800893757391993 L 0.5486747584840121 0.6810476033904468 L 0.549913301956888 0.6820644279255765 L 0.5511518454297639 0.6831398493445886 L 0.5523903889026398 0.6842738676474829 L 0.5536289323755157 0.6854664828342595 L 0.5548674758483916 0.6867176949049183 L 0.5561060193212675 0.6880275038594594 L 0.5573445627941434 0.6893959096978829 L 0.5585831062670192 0.6908229124201886 L 0.559821649739895 0.6923085120263766 L 0.561060193212771 0.6938527085164468 L 0.5622987366856469 0.6954555018903994 L 0.5635372801585229 0.6971168921482342 L 0.5647758236313988 0.6988368792899513 L 0.5660143671042748 0.7006154633155506 L 0.5672529105771507 0.7024526442250323 L 0.5684914540500267 0.7043484220183962 L 0.5697299975229025 0.7063027966956426 L 0.5709685409957785 0.7083157682567709 L 0.5722070844686544 0.7103873367017817 L 0.5734456279415303 0.7125175020306748 L 0.5746841714144063 0.7147062642434501 L 0.5759227148872822 0.7169536233401077 L 0.5771612583601582 0.7192595793206475 L 0.5783998018330341 0.7216241321850698 L 0.5796383453059101 0.7240472819333742 L 0.580876888778786 0.7265290285655609 L 0.582115432251662 0.7290693720816299 L 0.5833539757245378 0.7316683124815812 L 0.5845925191974137 0.7343258497654148 L 0.5858310626702897 0.7370419839331306 L 0.5870696061431656 0.7398167149847288 L 0.5883081496160416 0.7426500429202091 L 0.5895466930889175 0.7455419677395718 L 0.5907852365617935 0.7484924894428168 L 0.5920237800346694 0.7515016080299439 L 0.5932623235075454 0.7545693235009534 L 0.5945008669804213 0.7576956358558453 L 0.5957394104532973 0.7608805450946193 L 0.5969779539261731 0.7641240512172757 L 0.598216497399049 0.7674261542238143 L 0.599455040871925 0.7707868541142352 L 0.6006935843448009 0.7742061508885384 L 0.6019321278176769 0.7776840445467239 L 0.6031706712905528 0.7812205350887916 L 0.6044092147634288 0.7848156225147416 L 0.6056477582363047 0.788469306824574 L 0.6068863017091807 0.7921815880182885 L 0.6081248451820566 0.7959524660958853 L 0.6093633886549324 0.7997819410573646 L 0.6106019321278084 0.8036700129027259 L 0.6118404756006843 0.8076166816319696 L 0.6130790190735603 0.8116219472450956 L 0.6143175625464362 0.8156858097421038 L 0.6155561060193122 0.8198082691229943 L 0.6167946494921881 0.8239893253877671 L 0.6180331929650641 0.8282289785364223 L 0.61927173643794 0.8325272285689597 L 0.620510279910816 0.8368840754853792 L 0.6217488233836919 0.8412995192856811 L 0.6229873668565677 0.8457735599698654 L 0.6242259103294437 0.8503061975379319 L 0.6254644538023196 0.8548974319898807 L 0.6267029972751956 0.8595472633257116 L 0.6279415407480715 0.864255691545425 L 0.6291800842209475 0.8690227166490205 L 0.6304186276938234 0.8738483386364985 L 0.6316571711666994 0.8787325575078586 L 0.6328957146395753 0.8836753732631011 L 0.6341342581124513 0.8886767859022258 L 0.6353728015853272 0.8937367954252328 L 0.636611345058203 0.8988554018321221 L 0.637849888531079 0.9040326051228936 L 0.6390884320039549 0.9092684052975475 L 0.6403269754768309 0.9145628023560836 L 0.6415655189497068 0.919915796298502 L 0.6428040624225828 0.9253273871248027 L 0.6440426058954587 0.9307975748349856 L 0.6452811493683347 0.9363263594290508 L 0.6465196928412106 0.9419137409069983 L 0.6477582363140865 0.9475597192688281 L 0.6489967797869625 0.9532642945145402 L 0.6502353232598383 0.9590274666441345 L 0.6514738667327143 0.9648492356576112 L 0.6527124102055902 0.97072960155497 L 0.6539509536784662 0.9766685643362112 L 0.6551894971513421 0.9826661240013347 L 0.6564280406242181 0.9887222805503404 L 0.657666584097094 0.9948370339832284 L 0.65890512756997 0.9993950152317204 L 0.6601436710428459 0.995718008468649 L 0.6613822145157218 0.99209959858946 L 0.6626207579885978 0.9885397855941531 L 0.6638593014614736 0.9850385694827286 L 0.6650978449343496 0.9815959502551864 L 0.6663363884072255 0.9782119279115264 L 0.6675749318801015 0.9748865024517488 L 0.6688134753529774 0.9716196738758534 L 0.6700520188258534 0.9684114421838402 L 0.6712905622987293 0.9652618073757094 L 0.6725291057716052 0.9621707694514608 L 0.6737676492444812 0.9591383284110946 L 0.6750061927173571 0.9561644842546106 L 0.6762447361902331 0.9532492369820089 L 0.677483279663109 0.9503925865932894 L 0.678721823135985 0.9475945330884523 L 0.6799603666088608 0.9448550764674973 L 0.6811989100817368 0.9421742167304248 L 0.6824374535546127 0.9395519538772344 L 0.6836759970274887 0.9369882879079264 L 0.6849145405003646 0.9344832188225006 L 0.6861530839732405 0.9320367466209571 L 0.6873916274461165 0.929648871303296 L 0.6886301709189924 0.927319592869517 L 0.6898687143918684 0.9250489113196204 L 0.6911072578647443 0.922836826653606 L 0.6923458013376202 0.9206833388714739 L 0.6935843448104961 0.9185884479732241 L 0.6948228882833721 0.9165521539588566 L 0.696061431756248 0.9145744568283714 L 0.6972999752291239 0.9126553565817683 L 0.6985385187019999 0.9107948532190476 L 0.6997770621748758 0.9089929467402093 L 0.7010156056477518 0.9072496371452531 L 0.7022541491206277 0.9055649244341792 L 0.7034926925935037 0.9039388086069876 L 0.7047312360663796 0.9023712896636784 L 0.7059697795392555 0.9008623676042513 L 0.7072083230121314 0.8994120424287065 L 0.7084468664850074 0.8980203141370441 L 0.7096854099578833 0.896687182729264 L 0.7109239534307592 0.895412648205366 L 0.7121624969036352 0.8941967105653503 L 0.7134010403765111 0.893039369809217 L 0.7146395838493871 0.891940625936966 L 0.715878127322263 0.8909004789485971 L 0.717116670795139 0.8899189288441107 L 0.7183552142680149 0.8889959756235064 L 0.7195937577408908 0.8881316192867845 L 0.7208323012137667 0.8873258598339449 L 0.7220708446866427 0.8865786972649874 L 0.7233093881595186 0.8858901315799123 L 0.7245479316323945 0.8852601627787194 L 0.7257864751052705 0.884688790861409 L 0.7270250185781464 0.8841760158279806 L 0.7282635620510224 0.8837218376784346 L 0.7295021055238983 0.8833262564127708 L 0.7307406489967743 0.8829892720309894 L 0.7319791924696502 0.8827108845330902 L 0.7332177359425261 0.8824910939190733 L 0.734456279415402 0.8823299001889388 L 0.7356948228882779 0.8822273033426864 L 0.7369333663611539 0.8821833033803164 L 0.7381719098340298 0.8821979003018287 L 0.7394104533069058 0.8822710941072232 L 0.7406489967797817 0.8824028847965 L 0.7418875402526577 0.882593272369659 L 0.7431260837255336 0.8828422568267004 L 0.7443646271984096 0.8831498381676239 L 0.7456031706712855 0.8835160163924298 L 0.7468417141441615 0.883940791501118 L 0.7480802576170373 0.8844241634936885 L 0.7493188010899132 0.8849661323701412 L 0.7505573445627892 0.8855666981304763 L 0.7517958880356651 0.8862258607746936 L 0.7530344315085411 0.8869436203027932 L 0.754272974981417 0.887719976714775 L 0.755511518454293 0.8885549300106391 L 0.7567500619271689 0.8894484801903855 L 0.7579886054000449 0.8904006272540143 L 0.7592271488729208 0.8914113712015252 L 0.7604656923457966 0.8924807120329185 L 0.7617042358186726 0.893608649748194 L 0.7629427792915485 0.8947951843473518 L 0.7641813227644245 0.8960403158303919 L 0.7654198662373004 0.8973440441973143 L 0.7666584097101764 0.8987063694481189 L 0.7678969531830523 0.9001272915828058 L 0.7691354966559283 0.901606810601375 L 0.7703740401288042 0.9031449265038265 L 0.7716125836016802 0.9047416392901603 L 0.772851127074556 0.9063969489603763 L 0.7740896705474319 0.9081108555144746 L 0.7753282140203079 0.9098833589524552 L 0.7765667574931838 0.911714459274318 L 0.7778053009660598 0.9136041564800632 L 0.7790438444389357 0.9155524505696907 L 0.7802823879118117 0.9175593415432004 L 0.7815209313846876 0.9196248294005924 L 0.7827594748575636 0.9217489141418667 L 0.7839980183304395 0.9239315957670232 L 0.7852365618033154 0.926172874276062 L 0.7864751052761914 0.9284727496689831 L 0.7877136487490672 0.9308312219457865 L 0.7889521922219432 0.9332482911064721 L 0.7901907356948191 0.9357239571510401 L 0.7914292791676951 0.9382582200794903 L 0.792667822640571 0.9408510798918228 L 0.793906366113447 0.9435025365880376 L 0.7951449095863229 0.9462125901681346 L 0.7963834530591989 0.948981240632114 L 0.7976219965320748 0.9518084879799756 L 0.7988605400049507 0.9546943322117195 L 0.8000990834778267 0.9576387733273457 L 0.8013376269507025 0.9606418113268541 L 0.8025761704235785 0.9637034462102448 L 0.8038147138964544 0.9668236779775179 L 0.8050532573693304 0.9700025066286732 L 0.8062918008422063 0.9732399321637107 L 0.8075303443150823 0.9765359545826305 L 0.8087688877879582 0.9798905738854327 L 0.8100074312608342 0.9833037900721171 L 0.8112459747337101 0.9867756031426838 L 0.812484518206586 0.9903060130971327 L 0.813723061679462 0.9938950199354639 L 0.8149616051523378 0.9975426236576774 L 0.8162001486252138 0.9992559723583009 L 0.8174386920980897 0.9970753974700446 L 0.8186772355709657 0.9949534194656706 L 0.8199157790438416 0.992890038345179 L 0.8211543225167176 0.9908852541085695 L 0.8223928659895935 0.9889390667558423 L 0.8236314094624694 0.9870514762869975 L 0.8248699529353454 0.9852224827020348 L 0.8261084964082213 0.9834520860009546 L 0.8273470398810973 0.9817402861837565 L 0.8285855833539731 0.9800870832504407 L 0.8298241268268491 0.9784924772010073 L 0.831062670299725 0.9769564680354561 L 0.832301213772601 0.9754790557537871 L 0.8335397572454769 0.9740602403560005 L 0.8347783007183529 0.9727000218420961 L 0.8360168441912288 0.971398400212074 L 0.8372553876641047 0.9701553754659342 L 0.8384939311369807 0.9689709476036767 L 0.8397324746098566 0.9678451166253015 L 0.8409710180827326 0.9667778825308084 L 0.8422095615556084 0.9657692453201978 L 0.8434481050284844 0.9648192049934694 L 0.8446866485013603 0.9639277615506232 L 0.8459251919742363 0.9630949149916594 L 0.8471637354471122 0.9623206653165778 L 0.8484022789199881 0.9616050125253786 L 0.8496408223928641 0.9609479566180615 L 0.85087936586574 0.9603494975946267 L 0.852117909338616 0.9598096354550743 L 0.8533564528114919 0.9593283701994041 L 0.8545949962843679 0.9589057018276163 L 0.8558335397572437 0.9585416303397106 L 0.8570720832301197 0.9582361557356872 L 0.8583106267029956 0.9579892780155462 L 0.8595491701758716 0.9578009971792874 L 0.8607877136487475 0.9576713132269109 L 0.8620262571216234 0.9576002261584167 L 0.8632648005944994 0.9575877359738048 L 0.8645033440673753 0.957633842673075 L 0.8657418875402513 0.9577385462562277 L 0.8669804310131272 0.9579018467232625 L 0.8682189744860032 0.9581237440741797 L 0.869457517958879 0.9584042383089791 L 0.870696061431755 0.9587433294276608 L 0.8719346049046309 0.9591410174302248 L 0.8731731483775068 0.9595973023166712 L 0.8744116918503828 0.9601121840869997 L 0.8756502353232587 0.9606856627412106 L 0.8768887787961347 0.9613177382793037 L 0.8781273222690106 0.9620084107012791 L 0.8793658657418866 0.9627576800071368 L 0.8806044092147625 0.9635655461968767 L 0.8818429526876385 0.964432009270499 L 0.8830814961605143 0.9653570692280035 L 0.8843200396333903 0.9663407260693903 L 0.8855585831062662 0.9673829797946594 L 0.8867971265791421 0.9684838304038107 L 0.8880356700520181 0.9696432778968443 L 0.889274213524894 0.9708613222737602 L 0.89051275699777 0.9721379635345584 L 0.8917513004706459 0.9734732016792389 L 0.8929898439435219 0.9748670367078016 L 0.8942283874163978 0.9763194686202467 L 0.8954669308892738 0.9778304974165739 L 0.8967054743621496 0.9794001230967835 L 0.8979440178350256 0.9810283456608754 L 0.8991825613079015 0.9827151651088495 L 0.9004211047807774 0.9844605814407059 L 0.9016596482536534 0.9862645946564447 L 0.9028981917265293 0.9881272047560656 L 0.9041367351994053 0.9900484117395688 L 0.9053752786722812 0.9920282156069544 L 0.9066138221451572 0.9940666163582222 L 0.9078523656180331 0.9961636139933723 L 0.9090909090909091 0.9983192085124046"></path></svg>