<svg xmlns="http://www.w3.org/2000/svg" xmlns:xlink="http://www.w3.org/1999/xlink" xmlns:sketch="http://www.bohemiancoding.com/sketch/ns" id="canvas" viewBox="0 0 1 1"><rect x="0" y="0" width="1" height="1" style="stroke: #FFFFFF;"></rect><line class="gridLine" style="stroke: gray; stroke-width: 0.001;" x1="0" y1="0.9402074236180631" x2="1" y2="0.9402074236180631"></line><line class="gridLine" style="stroke: gray; stroke-width: 0.001;" x1="0" y1="0.8804148472361261" x2="1" y2="0.8804148472361261"></line><line class="gridLine" style="stroke: gray; stroke-width: 0.001;" x1="0" y1="0.8206222708541892" x2="1" y2="0.8206222708541892"></line><line class="gridLine" style="stroke: gray; stroke-width: 0.001;" x1="0" y1="0.7608296944722521" x2="1" y2="0.7608296944722521"></line><line class="gridLine" style="stroke: gray; stroke-width: 0.001;" x1="0" y1="0.7010371180903152" x2="1" y2="0.7010371180903152"></line><line class="gridLine" style="stroke: gray; stroke-width: 0.001;" x1="0" y1="0.6412445417083783" x2="1" y2="0.6412445417083783"></line><line class="gridLine" style="stroke: gray; stroke-width: 0.001;" x1="0" y1="0.5814519653264413" x2="1" y2="0.5814519653264413"></line><line class="gridLine" style="stroke: gray; stroke-width: 0.001;" x1="0" y1="0.5216593889445043" x2="1" y2="0.5216593889445043"></line><line class="gridLine" style="stroke: gray; stroke-width: 0.001;" x1="0" y1="0.46186681256256734" x2="1" y2="0.46186681256256734"></line><line class="gridLine" style="stroke: gray; stroke-width: 0.001;" x1="0" y1="0.40207423618063043" x2="1" y2="0.40207423618063043"></line><line class="gridLine" style="stroke: gray; stroke-width: 0.001;" x1="0" y1="0.3422816597986934" x2="1" y2="0.3422816597986934"></line><line class="gridLine" style="stroke: gray; stroke-width: 0.001;" x1="0" y1="0.2824890834167565" x2="1" y2="0.2824890834167565"></line><line class="gridLine" style="stroke: gray; stroke-width: 0.001;" x1="0" y1="0.22269650703481947" x2="1" y2="0.22269650703481947"></line><line class="gridLine" style="stroke: gray; stroke-width: 0.001;" x1="0" y1="0.16290393065288256" x2="1" y2="0.16290393065288256"></line><line class="gridLine" style="stroke: gray; stroke-width: 0.001;" x1="0" y1="0.10311135427094553" x2="1" y2="0.10311135427094553"></line><line class="gridLine" style="stroke: gray; stroke-width: 0.001;" x1="0" y1="0.04331877788900862" x2="1" y2="0.04331877788900862"></line><line class="gridLine" style="stroke: gray; stroke-width: 0.001;" x1="0.019961295484057114" y1="0" x2="0.019961295484057114" y2="1"></line><line class="gridLine" style="stroke: gray; stroke-width: 0.001;" x1="0.03992259096811423" y1="0" x2="0.03992259096811423" y2="1"></line><line class="gridLine" style="stroke: gray; stroke-width: 0.001;" x1="0.05988388645217134" y1="0" x2="0.05988388645217134" y2="1"></line><line class="gridLine" style="stroke: gray; stroke-width: 0.001;" x1="0.07984518193622846" y1="0" x2="0.07984518193622846" y2="1"></line><line class="gridLine" style="stroke: gray; stroke-width: 0.001;" x1="0.09980647742028557" y1="0" x2="0.09980647742028557" y2="1"></line><line class="gridLine" style="stroke: gray; stroke-width: 0.001;" x1="0.11976777290434268" y1="0" x2="0.11976777290434268" y2="1"></line><line class="gridLine" style="stroke: gray; stroke-width: 0.001;" x1="0.1397290683883998" y1="0" x2="0.1397290683883998" y2="1"></line><line class="gridLine" style="stroke: gray; stroke-width: 0.001;" x1="0.15969036387245691" y1="0" x2="0.15969036387245691" y2="1"></line><line class="gridLine" style="stroke: gray; stroke-width: 0.001;" x1="0.17965165935651403" y1="0" x2="0.17965165935651403" y2="1"></line><line class="gridLine" style="stroke: gray; stroke-width: 0.001;" x1="0.19961295484057115" y1="0" x2="0.19961295484057115" y2="1"></line><line class="gridLine" style="stroke: gray; stroke-width: 0.001;" x1="0.21957425032462824" y1="0" x2="0.21957425032462824" y2="1"></line><line class="gridLine" style="stroke: gray; stroke-width: 0.001;" x1="0.23953554580868536" y1="0" x2="0.23953554580868536" y2="1"></line><line class="gridLine" style="stroke: gray; stroke-width: 0.001;" x1="0.2594968412927425" y1="0" x2="0.2594968412927425" y2="1"></line><line class="gridLine" style="stroke: gray; stroke-width: 0.001;" x1="0.2794581367767996" y1="0" x2="0.2794581367767996" y2="1"></line><line class="gridLine" style="stroke: gray; stroke-width: 0.001;" x1="0.2994194322608567" y1="0" x2="0.2994194322608567" y2="1"></line><line class="gridLine" style="stroke: gray; stroke-width: 0.001;" x1="0.31938072774491383" y1="0" x2="0.31938072774491383" y2="1"></line><line class="gridLine" style="stroke: gray; stroke-width: 0.001;" x1="0.33934202322897095" y1="0" x2="0.33934202322897095" y2="1"></line><line class="gridLine" style="stroke: gray; stroke-width: 0.001;" x1="0.35930331871302806" y1="0" x2="0.35930331871302806" y2="1"></line><line class="gridLine" style="stroke: gray; stroke-width: 0.001;" x1="0.3792646141970852" y1="0" x2="0.3792646141970852" y2="1"></line><line class="gridLine" style="stroke: gray; stroke-width: 0.001;" x1="0.3992259096811423" y1="0" x2="0.3992259096811423" y2="1"></line><line class="gridLine" style="stroke: gray; stroke-width: 0.001;" x1="0.4191872051651994" y1="0" x2="0.4191872051651994" y2="1"></line><line class="gridLine" style="stroke: gray; stroke-width: 0.001;" x1="0.4391485006492565" y1="0" x2="0.4391485006492565" y2="1"></line><line class="gridLine" style="stroke: gray; stroke-width: 0.001;" x1="0.4591097961333136" y1="0" x2="0.4591097961333136" y2="1"></line><line class="gridLine" style="stroke: gray; stroke-width: 0.001;" x1="0.4790710916173707" y1="0" x2="0.4790710916173707" y2="1"></line><line class="gridLine" style="stroke: gray; stroke-width: 0.001;" x1="0.49903238710142783" y1="0" x2="0.49903238710142783" y2="1"></line><line class="gridLine" style="stroke: gray; stroke-width: 0.001;" x1="0.518993682585485" y1="0" x2="0.518993682585485" y2="1"></line><line class="gridLine" style="stroke: gray; stroke-width: 0.001;" x1="0.5389549780695421" y1="0" x2="0.5389549780695421" y2="1"></line><line class="gridLine" style="stroke: gray; stroke-width: 0.001;" x1="0.5589162735535992" y1="0" x2="0.5589162735535992" y2="1"></line><line class="gridLine" style="stroke: gray; stroke-width: 0.001;" x1="0.5788775690376563" y1="0" x2="0.5788775690376563" y2="1"></line><line class="gridLine" style="stroke: gray; stroke-width: 0.001;" x1="0.5988388645217134" y1="0" x2="0.5988388645217134" y2="1"></line><line class="gridLine" style="stroke: gray; stroke-width: 0.001;" x1="0.6188001600057705" y1="0" x2="0.6188001600057705" y2="1"></line><line class="gridLine" style="stroke: gray; stroke-width: 0.001;" x1="0.6387614554898277" y1="0" x2="0.6387614554898277" y2="1"></line><line class="gridLine" style="stroke: gray; stroke-width: 0.001;" x1="0.6587227509738848" y1="0" x2="0.6587227509738848" y2="1"></line><line class="gridLine" style="stroke: gray; stroke-width: 0.001;" x1="0.6786840464579419" y1="0" x2="0.6786840464579419" y2="1"></line><line class="gridLine" style="stroke: gray; stroke-width: 0.001;" x1="0.698645341941999" y1="0" x2="0.698645341941999" y2="1"></line><line class="gridLine" style="stroke: gray; stroke-width: 0.001;" x1="0.7186066374260561" y1="0" x2="0.7186066374260561" y2="1"></line><line class="gridLine" style="stroke: gray; stroke-width: 0.001;" x1="0.7385679329101132" y1="0" x2="0.7385679329101132" y2="1"></line><line class="gridLine" style="stroke: gray; stroke-width: 0.001;" x1="0.7585292283941704" y1="0" x2="0.7585292283941704" y2="1"></line><line class="gridLine" style="stroke: gray; stroke-width: 0.001;" x1="0.7784905238782275" y1="0" x2="0.7784905238782275" y2="1"></line><line class="gridLine" style="stroke: gray; stroke-width: 0.001;" x1="0.7984518193622846" y1="0" x2="0.7984518193622846" y2="1"></line><line class="gridLine" style="stroke: gray; stroke-width: 0.001;" x1="0.8184131148463417" y1="0" x2="0.8184131148463417" y2="1"></line><line class="gridLine" style="stroke: gray; stroke-width: 0.001;" x1="0.8383744103303988" y1="0" x2="0.8383744103303988" y2="1"></line><line class="gridLine" style="stroke: gray; stroke-width: 0.001;" x1="0.858335705814456" y1="0" x2="0.858335705814456" y2="1"></line><line class="gridLine" style="stroke: gray; stroke-width: 0.001;" x1="0.878297001298513" y1="0" x2="0.878297001298513" y2="1"></line><line class="gridLine" style="stroke: gray; stroke-width: 0.001;" x1="0.8982582967825701" y1="0" x2="0.8982582967825701" y2="1"></line><line class="gridLine" style="stroke: gray; stroke-width: 0.001;" x1="0.9182195922666272" y1="0" x2="0.9182195922666272" y2="1"></line><line class="gridLine" style="stroke: gray; stroke-width: 0.001;" x1="0.9381808877506843" y1="0" x2="0.9381808877506843" y2="1"></line><line class="gridLine" style="stroke: gray; stroke-width: 0.001;" x1="0.9581421832347414" y1="0" x2="0.9581421832347414" y2="1"></line><line class="gridLine" style="stroke: gray; stroke-width: 0.001;" x1="0.9781034787187985" y1="0" x2="0.9781034787187985" y2="1"></line><line class="gridLine" style="stroke: gray; stroke-width: 0.001;" x1="0.9980647742028557" y1="0" x2="0.9980647742028557" y2="1"></line><path style="stroke:black;
        stroke-width:0.005;
        fill:none;" d="M 0 0.7010371180903152 L 0.009046359557730784 0.6742402939477887 L 0.018092719115461568 0.6480452163297394 L 0.027139078673192353 0.6224518852361676 L 0.036185438230923135 0.5974603006670728 L 0.04523179778865392 0.5730704626224552 L 0.054278157346384706 0.549282371102315 L 0.06332451690411549 0.5260960261066521 L 0.07237087646184627 0.5035114276354662 L 0.08141723601957704 0.4815285756887576 L 0.09046359557730783 0.46014747026652636 L 0.09950995513503863 0.4393681113687722 L 0.10855631469276941 0.41919049899549554 L 0.11760267425050018 0.39961463314669576 L 0.12664903380823098 0.3806405138223735 L 0.13569539336596176 0.36226814102252847 L 0.14474175292369254 0.3444975147471605 L 0.15378811248142332 0.32732863499626996 L 0.16283447203915408 0.3107615017698565 L 0.17188083159688491 0.29479611506792036 L 0.18092719115461567 0.2794324748904614 L 0.18997355071234645 0.26467058123747966 L 0.19901991027007726 0.2505104341089752 L 0.20806626982780804 0.2369520335049481 L 0.21711262938553882 0.22399537942539804 L 0.22615898894326958 0.2116404718703252 L 0.23520534850100036 0.19988731083972977 L 0.24425170805873117 0.18873589633361165 L 0.25329806761646195 0.17818622835197062 L 0.2623444271741927 0.1682383068948068 L 0.2713907867319235 0.15889213196212038 L 0.2804371462896543 0.15014770355391094 L 0.2894835058473851 0.14200502167017903 L 0.29852986540511584 0.134464086310924 L 0.30757622496284664 0.1275248974761467 L 0.31662258452057745 0.12118745516584606 L 0.32566894407830815 0.11545175938002294 L 0.33471530363603896 0.11031781011867703 L 0.34376166319376983 0.10578560738180864 L 0.3528080227515005 0.10185515116941724 L 0.36185438230923134 0.09852644148150325 L 0.37090074186696215 0.09579947831806623 L 0.3799471014246929 0.09367426167910631 L 0.3889934609824237 0.09215079156462402 L 0.3980398205401545 0.09122906797461872 L 0.4070861800978853 0.09090909090909105 L 0.4161325396556161 0.09119086036804014 L 0.4251788992133468 0.09207437635146654 L 0.43422525877107765 0.09355963885937046 L 0.44327161832880846 0.09564664789175159 L 0.45231797788653916 0.09833540344860958 L 0.46136433744426997 0.10162590552994522 L 0.4704106970020007 0.10551815413575794 L 0.47945705655973153 0.11001214926604774 L 0.48850341611746234 0.11510789092081497 L 0.4975497756751931 0.1208053791000595 L 0.5065961352329239 0.12710461380378113 L 0.5156424947906547 0.13400559503198006 L 0.5246888543483854 0.1415083227846563 L 0.5337352139061162 0.1496127970618094 L 0.542781573463847 0.1583190178634405 L 0.5518279330215778 0.16762698518954777 L 0.5608742925793087 0.17753669904013314 L 0.5699206521370394 0.18804815941519548 L 0.5789670116947702 0.19916136631473524 L 0.588013371252501 0.21087631973875187 L 0.5970597308102317 0.2231930196872458 L 0.6061060903679625 0.23611146616021705 L 0.6151524499256933 0.24963165915766605 L 0.6241988094834241 0.26375359867959147 L 0.6332451690411549 0.2784772847259944 L 0.6422915285988856 0.293802717296875 L 0.6513378881566163 0.3097298963922318 L 0.6603842477143472 0.32625882201206735 L 0.6694306072720779 0.34338949415637854 L 0.6784769668298087 0.3611219128251679 L 0.6875233263875397 0.37945607801843484 L 0.6965696859452704 0.3983919897361782 L 0.705616045503001 0.41792964797839927 L 0.714662405060732 0.4380690527450979 L 0.7237087646184627 0.45881020403627315 L 0.7327551241761935 0.4801531018519247 L 0.7418014837339243 0.5020977461920555 L 0.7508478432916551 0.5246441370566626 L 0.7598942028493858 0.5477922744457464 L 0.7689405624071167 0.5715421583593081 L 0.7779869219648474 0.5958937887973472 L 0.7870332815225781 0.6208471657598631 L 0.796079641080309 0.6464022892468566 L 0.8051260006380397 0.6725591592583271 L 0.8141723601957706 0.6993177757942752 L 0.8232187197535012 0.7266781388546995 L 0.8322650793112322 0.7546402484396022 L 0.8413114388689629 0.783204104548982 L 0.8503577984266936 0.8123697071828381 L 0.8594041579844245 0.8421370563411725 L 0.8684505175421553 0.8725061520239836 L 0.877496877099886 0.9034769942312715 L 0.8865432366576169 0.9350495829630384 L 0.8955895962153476 0.9672239182192809 L 0.9046359557730783 1.0000000000000009"></path><path style="stroke:red;
        stroke-width:0.005;
        fill:none;" d="M 0 0.7010371180903152 L 0.00909090909090909 0.6769059324935602 L 0.01818181818181818 0.6533226421375296 L 0.02727272727272727 0.6302872470222232 L 0.03636363636363636 0.6077997471476408 L 0.045454545454545456 0.585860142513783 L 0.05454545454545454 0.5644684331206495 L 0.06363636363636363 0.5436246189682402 L 0.07272727272727272 0.5233287000565551 L 0.08181818181818182 0.5035806763855943 L 0.09090909090909091 0.4843805479553579 L 0.09999999999999999 0.46572831476584575 L 0.10909090909090909 0.4476239768170578 L 0.11818181818181818 0.43006753410899423 L 0.12727272727272726 0.41305898664165497 L 0.13636363636363635 0.3965983344150398 L 0.14545454545454545 0.380685577429149 L 0.15454545454545454 0.3653207156839824 L 0.16363636363636364 0.3505037491795402 L 0.17272727272727273 0.3362346779158222 L 0.18181818181818182 0.32251350189282857 L 0.19090909090909092 0.30934022111055925 L 0.19999999999999998 0.2967148355690141 L 0.2090909090909091 0.2846373452681933 L 0.21818181818181817 0.27310775020809686 L 0.22727272727272727 0.2621260503887245 L 0.23636363636363636 0.25169224581007643 L 0.24545454545454545 0.24180633647215277 L 0.2545454545454545 0.2324683223749534 L 0.2636363636363636 0.2236782035184781 L 0.2727272727272727 0.21543597990272723 L 0.2818181818181818 0.20774165152770063 L 0.2909090909090909 0.20059521839339822 L 0.3 0.19399668049982022 L 0.3090909090909091 0.1879460378469664 L 0.3181818181818182 0.18244329043483687 L 0.32727272727272727 0.17748843826343175 L 0.3363636363636363 0.17308148133275092 L 0.34545454545454546 0.16922241964279416 L 0.35454545454545455 0.16591125319356181 L 0.36363636363636365 0.16314798198505376 L 0.3727272727272727 0.16093260601726989 L 0.38181818181818183 0.15926512529021053 L 0.39090909090909093 0.15814553980387513 L 0.39999999999999997 0.15757384955826426 L 0.40909090909090906 0.15755005455337745 L 0.4181818181818182 0.15807415478921516 L 0.42727272727272725 0.15914615026577705 L 0.43636363636363634 0.16076604098306324 L 0.4454545454545455 0.1629338269410736 L 0.45454545454545453 0.1656495081398084 L 0.4636363636363636 0.16891308457926713 L 0.4727272727272727 0.1727245562594505 L 0.48181818181818176 0.17708392318035804 L 0.4909090909090909 0.18199118534198988 L 0.5 0.18744634274434613 L 0.509090909090909 0.19344939538742645 L 0.5181818181818182 0.20000034327123106 L 0.5272727272727272 0.20709918639575986 L 0.5363636363636364 0.21474592476101306 L 0.5454545454545454 0.22294055836699045 L 0.5545454545454546 0.23168308721369257 L 0.5636363636363636 0.24097351130111855 L 0.5727272727272726 0.25081183062926904 L 0.5818181818181818 0.2611980451981434 L 0.5909090909090909 0.27213215500774246 L 0.6 0.2836141600580655 L 0.609090909090909 0.29564406034911317 L 0.6181818181818182 0.3082218558808846 L 0.6272727272727272 0.3213475466533807 L 0.6363636363636364 0.3350211326666007 L 0.6454545454545455 0.34924261392054556 L 0.6545454545454545 0.36401199041521426 L 0.6636363636363637 0.3793292621506079 L 0.6727272727272726 0.39519442912672487 L 0.6818181818181818 0.4116074913435669 L 0.6909090909090909 0.42856844880113243 L 0.7 0.4460773014994227 L 0.7090909090909091 0.4641340494384374 L 0.7181818181818183 0.48273869261817626 L 0.7272727272727273 0.5018912310386394 L 0.7363636363636363 0.5215916646998267 L 0.7454545454545454 0.541839993601738 L 0.7545454545454545 0.5626362177443741 L 0.7636363636363637 0.5839803371277348 L 0.7727272727272727 0.6058723517518192 L 0.7818181818181819 0.6283122616166277 L 0.7909090909090908 0.6513000667221608 L 0.7999999999999999 0.6748357670684182 L 0.8090909090909091 0.6989193626553997 L 0.8181818181818181 0.7235508534831054 L 0.8272727272727273 0.7487302395515362 L 0.8363636363636364 0.7744575208606903 L 0.8454545454545453 0.8007326974105686 L 0.8545454545454545 0.827555769201172 L 0.8636363636363636 0.8549267362324987 L 0.8727272727272727 0.8828455985045509 L 0.8818181818181818 0.9113123560173264 L 0.890909090909091 0.9403270087708271 L 0.9 0.969889556765051 L 0.9090909090909091 1"></path></svg>