<svg xmlns="http://www.w3.org/2000/svg" xmlns:xlink="http://www.w3.org/1999/xlink" xmlns:sketch="http://www.bohemiancoding.com/sketch/ns" id="canvas" viewBox="0 0 1 1">
    <rect x="0" y="0" width="1" height="1" style="stroke: #FFFFFF;"/>
    <line class="gridLine" style="stroke: gray; stroke-width: 0.001;" x1="0" y1="0.9402072613446134" x2="1" y2="0.9402072613446134"/>
    <line class="gridLine" style="stroke: gray; stroke-width: 0.001;" x1="0" y1="0.8804145226892267" x2="1" y2="0.8804145226892267"/>
    <line class="gridLine" style="stroke: gray; stroke-width: 0.001;" x1="0" y1="0.8206217840338401" x2="1" y2="0.8206217840338401"/>
    <line class="gridLine" style="stroke: gray; stroke-width: 0.001;" x1="0" y1="0.7608290453784534" x2="1" y2="0.7608290453784534"/>
    <line class="gridLine" style="stroke: gray; stroke-width: 0.001;" x1="0" y1="0.7010363067230668" x2="1" y2="0.7010363067230668"/>
    <line class="gridLine" style="stroke: gray; stroke-width: 0.001;" x1="0" y1="0.6412435680676802" x2="1" y2="0.6412435680676802"/>
    <line class="gridLine" style="stroke: gray; stroke-width: 0.001;" x1="0" y1="0.5814508294122935" x2="1" y2="0.5814508294122935"/>
    <line class="gridLine" style="stroke: gray; stroke-width: 0.001;" x1="0" y1="0.5216580907569068" x2="1" y2="0.5216580907569068"/>
    <line class="gridLine" style="stroke: gray; stroke-width: 0.001;" x1="0" y1="0.46186535210152024" x2="1" y2="0.46186535210152024"/>
    <line class="gridLine" style="stroke: gray; stroke-width: 0.001;" x1="0" y1="0.40207261344613365" x2="1" y2="0.40207261344613365"/>
    <line class="gridLine" style="stroke: gray; stroke-width: 0.001;" x1="0" y1="0.34227987479074695" x2="1" y2="0.34227987479074695"/>
    <line class="gridLine" style="stroke: gray; stroke-width: 0.001;" x1="0" y1="0.28248713613536036" x2="1" y2="0.28248713613536036"/>
    <line class="gridLine" style="stroke: gray; stroke-width: 0.001;" x1="0" y1="0.22269439747997377" x2="1" y2="0.22269439747997377"/>
    <line class="gridLine" style="stroke: gray; stroke-width: 0.001;" x1="0" y1="0.16290165882458707" x2="1" y2="0.16290165882458707"/>
    <line class="gridLine" style="stroke: gray; stroke-width: 0.001;" x1="0" y1="0.10310892016920048" x2="1" y2="0.10310892016920048"/>
    <line class="gridLine" style="stroke: gray; stroke-width: 0.001;" x1="0" y1="0.04331618151381378" x2="1" y2="0.04331618151381378"/>
    <line class="gridLine" style="stroke: gray; stroke-width: 0.001;" x1="0.020025680577359067" y1="0" x2="0.020025680577359067" y2="1"/>
    <line class="gridLine" style="stroke: gray; stroke-width: 0.001;" x1="0.040051361154718135" y1="0" x2="0.040051361154718135" y2="1"/>
    <line class="gridLine" style="stroke: gray; stroke-width: 0.001;" x1="0.0600770417320772" y1="0" x2="0.0600770417320772" y2="1"/>
    <line class="gridLine" style="stroke: gray; stroke-width: 0.001;" x1="0.08010272230943627" y1="0" x2="0.08010272230943627" y2="1"/>
    <line class="gridLine" style="stroke: gray; stroke-width: 0.001;" x1="0.10012840288679534" y1="0" x2="0.10012840288679534" y2="1"/>
    <line class="gridLine" style="stroke: gray; stroke-width: 0.001;" x1="0.1201540834641544" y1="0" x2="0.1201540834641544" y2="1"/>
    <line class="gridLine" style="stroke: gray; stroke-width: 0.001;" x1="0.14017976404151347" y1="0" x2="0.14017976404151347" y2="1"/>
    <line class="gridLine" style="stroke: gray; stroke-width: 0.001;" x1="0.16020544461887254" y1="0" x2="0.16020544461887254" y2="1"/>
    <line class="gridLine" style="stroke: gray; stroke-width: 0.001;" x1="0.1802311251962316" y1="0" x2="0.1802311251962316" y2="1"/>
    <line class="gridLine" style="stroke: gray; stroke-width: 0.001;" x1="0.20025680577359067" y1="0" x2="0.20025680577359067" y2="1"/>
    <line class="gridLine" style="stroke: gray; stroke-width: 0.001;" x1="0.22028248635094974" y1="0" x2="0.22028248635094974" y2="1"/>
    <line class="gridLine" style="stroke: gray; stroke-width: 0.001;" x1="0.2403081669283088" y1="0" x2="0.2403081669283088" y2="1"/>
    <line class="gridLine" style="stroke: gray; stroke-width: 0.001;" x1="0.26033384750566785" y1="0" x2="0.26033384750566785" y2="1"/>
    <line class="gridLine" style="stroke: gray; stroke-width: 0.001;" x1="0.28035952808302694" y1="0" x2="0.28035952808302694" y2="1"/>
    <line class="gridLine" style="stroke: gray; stroke-width: 0.001;" x1="0.300385208660386" y1="0" x2="0.300385208660386" y2="1"/>
    <line class="gridLine" style="stroke: gray; stroke-width: 0.001;" x1="0.3204108892377451" y1="0" x2="0.3204108892377451" y2="1"/>
    <line class="gridLine" style="stroke: gray; stroke-width: 0.001;" x1="0.3404365698151041" y1="0" x2="0.3404365698151041" y2="1"/>
    <line class="gridLine" style="stroke: gray; stroke-width: 0.001;" x1="0.3604622503924632" y1="0" x2="0.3604622503924632" y2="1"/>
    <line class="gridLine" style="stroke: gray; stroke-width: 0.001;" x1="0.38048793096982225" y1="0" x2="0.38048793096982225" y2="1"/>
    <line class="gridLine" style="stroke: gray; stroke-width: 0.001;" x1="0.40051361154718135" y1="0" x2="0.40051361154718135" y2="1"/>
    <line class="gridLine" style="stroke: gray; stroke-width: 0.001;" x1="0.4205392921245404" y1="0" x2="0.4205392921245404" y2="1"/>
    <line class="gridLine" style="stroke: gray; stroke-width: 0.001;" x1="0.4405649727018995" y1="0" x2="0.4405649727018995" y2="1"/>
    <line class="gridLine" style="stroke: gray; stroke-width: 0.001;" x1="0.4605906532792585" y1="0" x2="0.4605906532792585" y2="1"/>
    <line class="gridLine" style="stroke: gray; stroke-width: 0.001;" x1="0.4806163338566176" y1="0" x2="0.4806163338566176" y2="1"/>
    <line class="gridLine" style="stroke: gray; stroke-width: 0.001;" x1="0.5006420144339767" y1="0" x2="0.5006420144339767" y2="1"/>
    <line class="gridLine" style="stroke: gray; stroke-width: 0.001;" x1="0.5206676950113357" y1="0" x2="0.5206676950113357" y2="1"/>
    <line class="gridLine" style="stroke: gray; stroke-width: 0.001;" x1="0.5406933755886948" y1="0" x2="0.5406933755886948" y2="1"/>
    <line class="gridLine" style="stroke: gray; stroke-width: 0.001;" x1="0.5607190561660539" y1="0" x2="0.5607190561660539" y2="1"/>
    <line class="gridLine" style="stroke: gray; stroke-width: 0.001;" x1="0.580744736743413" y1="0" x2="0.580744736743413" y2="1"/>
    <line class="gridLine" style="stroke: gray; stroke-width: 0.001;" x1="0.600770417320772" y1="0" x2="0.600770417320772" y2="1"/>
    <line class="gridLine" style="stroke: gray; stroke-width: 0.001;" x1="0.6207960978981311" y1="0" x2="0.6207960978981311" y2="1"/>
    <line class="gridLine" style="stroke: gray; stroke-width: 0.001;" x1="0.6408217784754902" y1="0" x2="0.6408217784754902" y2="1"/>
    <line class="gridLine" style="stroke: gray; stroke-width: 0.001;" x1="0.6608474590528493" y1="0" x2="0.6608474590528493" y2="1"/>
    <line class="gridLine" style="stroke: gray; stroke-width: 0.001;" x1="0.6808731396302082" y1="0" x2="0.6808731396302082" y2="1"/>
    <line class="gridLine" style="stroke: gray; stroke-width: 0.001;" x1="0.7008988202075673" y1="0" x2="0.7008988202075673" y2="1"/>
    <line class="gridLine" style="stroke: gray; stroke-width: 0.001;" x1="0.7209245007849264" y1="0" x2="0.7209245007849264" y2="1"/>
    <line class="gridLine" style="stroke: gray; stroke-width: 0.001;" x1="0.7409501813622855" y1="0" x2="0.7409501813622855" y2="1"/>
    <line class="gridLine" style="stroke: gray; stroke-width: 0.001;" x1="0.7609758619396445" y1="0" x2="0.7609758619396445" y2="1"/>
    <line class="gridLine" style="stroke: gray; stroke-width: 0.001;" x1="0.7810015425170036" y1="0" x2="0.7810015425170036" y2="1"/>
    <line class="gridLine" style="stroke: gray; stroke-width: 0.001;" x1="0.8010272230943627" y1="0" x2="0.8010272230943627" y2="1"/>
    <line class="gridLine" style="stroke: gray; stroke-width: 0.001;" x1="0.8210529036717218" y1="0" x2="0.8210529036717218" y2="1"/>
    <line class="gridLine" style="stroke: gray; stroke-width: 0.001;" x1="0.8410785842490808" y1="0" x2="0.8410785842490808" y2="1"/>
    <line class="gridLine" style="stroke: gray; stroke-width: 0.001;" x1="0.8611042648264399" y1="0" x2="0.8611042648264399" y2="1"/>
    <line class="gridLine" style="stroke: gray; stroke-width: 0.001;" x1="0.881129945403799" y1="0" x2="0.881129945403799" y2="1"/>
    <line class="gridLine" style="stroke: gray; stroke-width: 0.001;" x1="0.9011556259811581" y1="0" x2="0.9011556259811581" y2="1"/>
    <line class="gridLine" style="stroke: gray; stroke-width: 0.001;" x1="0.921181306558517" y1="0" x2="0.921181306558517" y2="1"/>
    <line class="gridLine" style="stroke: gray; stroke-width: 0.001;" x1="0.9412069871358761" y1="0" x2="0.9412069871358761" y2="1"/>
    <line class="gridLine" style="stroke: gray; stroke-width: 0.001;" x1="0.9612326677132352" y1="0" x2="0.9612326677132352" y2="1"/>
    <line class="gridLine" style="stroke: gray; stroke-width: 0.001;" x1="0.9812583482905942" y1="0" x2="0.9812583482905942" y2="1"/>
    <path style="stroke:black; stroke-width:0.005; fill:none;" d="M 0 0.7010363067230668 L 0.0028320589068252665 0.6926096349712202 L 0.005664117813650533 0.6842415601032559 L 0.0084961767204758 0.6759320821191737 L 0.011328235627301066 0.6676812010189739 L 0.01416029453412633 0.6594889168026564 L 0.016992353440951596 0.6513552294702212 L 0.019824412347776862 0.6432801390216683 L 0.02265647125460213 0.6352636454569975 L 0.02548853016142739 0.627305748776209 L 0.028320589068252657 0.619406448979303 L 0.031152647975077923 0.6115657460662791 L 0.033984706881903186 0.6037836400371375 L 0.03681676578872845 0.5960601308918783 L 0.03964882469555372 0.5883952186305011 L 0.042480883602378984 0.5807889032530065 L 0.04531294250920426 0.5732411847593939 L 0.04814500141602952 0.5657520631496638 L 0.050977060322854796 0.5583215384238158 L 0.05380911922968006 0.5509496105818503 L 0.056641178136505335 0.5436362796237668 L 0.0594732370433306 0.5363815455495659 L 0.062305295950155874 0.5291854083592471 L 0.06513735485698115 0.5220478680528104 L 0.06796941376380641 0.5149689246302562 L 0.07080147267063168 0.5079485780915842 L 0.07363353157745695 0.5009868284367945 L 0.07646559048428223 0.4940836756658872 L 0.07929764939110749 0.48723911977886203 L 0.08212970829793276 0.4804531607757192 L 0.08496176720475802 0.4737257986564586 L 0.08779382611158329 0.4670570334210804 L 0.09062588501840854 0.46044686506958443 L 0.09345794392523381 0.45389529360197056 L 0.09629000283205906 0.4474023190182391 L 0.09912206173888433 0.4409679413183899 L 0.10195412064570959 0.434592160502423 L 0.10478617955253484 0.4282749765703384 L 0.10761823845936011 0.42201638952213605 L 0.11045029736618538 0.415816399357816 L 0.11328235627301063 0.4096750060773783 L 0.1161144151798359 0.40359220968082277 L 0.11894647408666115 0.39756801016814947 L 0.12177853299348641 0.3916024075393585 L 0.12461059190031168 0.38569540179444983 L 0.12744265080713693 0.3798469929334234 L 0.13027470971396218 0.37405718095627927 L 0.13310676862078746 0.36832596586301747 L 0.13593882752761272 0.362653347653638 L 0.13877088643443797 0.3570393263281407 L 0.14160294534126325 0.3514839018865257 L 0.1444350042480885 0.34598707432879294 L 0.14726706315491375 0.3405488436549424 L 0.15009912206173903 0.3351692098649742 L 0.15293118096856428 0.32984817295888835 L 0.15576323987538954 0.3245857329366848 L 0.15859529878221482 0.31938188979836346 L 0.1614273576890401 0.31423664354392444 L 0.16425941659586535 0.30914999417336764 L 0.1670914755026906 0.30412194168669315 L 0.16992353440951585 0.2991524860839009 L 0.17275559331634113 0.29424162736499093 L 0.17558765222316638 0.2893893655299633 L 0.17841971112999164 0.2845957005788179 L 0.18125177003681692 0.2798606325115548 L 0.18408382894364217 0.275184161328174 L 0.18691588785046742 0.2705662870286756 L 0.1897479467572927 0.26600700961305923 L 0.19258000566411795 0.2615063290813252 L 0.1954120645709432 0.2570642454334735 L 0.19824412347776849 0.252680758669504 L 0.20107618238459374 0.24835586878941684 L 0.203908241291419 0.244089575793212 L 0.20674030019824427 0.23988187968088948 L 0.20957235910506952 0.23573278045244916 L 0.21240441801189477 0.23164227810789118 L 0.21523647691872003 0.2276103726472154 L 0.2180685358255453 0.22363706407042194 L 0.22090059473237056 0.2197223523775107 L 0.2237326536391958 0.21586623756848178 L 0.2265647125460211 0.21206871964333507 L 0.22939677145284634 0.2083297986020708 L 0.2322288303596716 0.20464947444468873 L 0.23506088926649688 0.201027747171189 L 0.23789294817332213 0.19746461678157146 L 0.24072500708014738 0.19396008327583625 L 0.24355706598697266 0.19051414665398325 L 0.2463891248937979 0.18712680691601247 L 0.24922118380062316 0.18379806406192412 L 0.25205324270744844 0.18052791809171798 L 0.2548853016142737 0.17731636900539416 L 0.25771736052109895 0.17416341680295255 L 0.2605494194279242 0.17106906148439338 L 0.26338147833474945 0.16803330304971642 L 0.26621353724157476 0.16505614149892167 L 0.2690455961484 0.16213757683200913 L 0.27187765505522526 0.15927760904897892 L 0.2747097139620505 0.15647623814983103 L 0.27754177286887577 0.15373346413456546 L 0.280373831775701 0.1510492870031821 L 0.28320589068252633 0.14842370675568106 L 0.2860379495893516 0.14585672339206235 L 0.28887000849617683 0.14334833691232596 L 0.2917020674030021 0.14089854731647167 L 0.29453412630982734 0.1385073546044997 L 0.2973661852166526 0.13617475877641005 L 0.30019824412347784 0.13390075983220262 L 0.30303030303030315 0.1316853577718775 L 0.3058623619371284 0.12952855259543472 L 0.30869442084395365 0.12743034430287425 L 0.3115264797507789 0.125390732894196 L 0.31435853865760416 0.12340971836940007 L 0.3171905975644294 0.12148730072848635 L 0.3200226564712547 0.11962347997145484 L 0.32285471537807997 0.11781825609830565 L 0.3256867742849052 0.11607162910903879 L 0.3285188331917305 0.11438359900365425 L 0.3313508920985557 0.11275416578215192 L 0.334182951005381 0.11118332944453191 L 0.33701500991220623 0.10967108999079422 L 0.33984706881903154 0.10821744742093875 L 0.3426791277258568 0.10682240173496549 L 0.34551118663268204 0.10548595293287455 L 0.3483432455395073 0.10420810101466593 L 0.35117530444633255 0.10298884598033953 L 0.3540073633531578 0.10182818782989544 L 0.3568394222599831 0.10072612656333368 L 0.35967148116680836 0.09968266218065425 L 0.3625035400736336 0.09869779468185702 L 0.36533559898045886 0.097771524066942 L 0.3681676578872841 0.09690385033590931 L 0.37099971679410937 0.09609477348875883 L 0.3738317757009347 0.09534429352549068 L 0.37666383460775993 0.09465241044610484 L 0.3794958935145852 0.09401912425060133 L 0.38232795242141043 0.09344443493898003 L 0.3851600113282357 0.09292834251124105 L 0.38799207023506094 0.09247084696738439 L 0.3908241291418862 0.09207194830740983 L 0.3936561880487115 0.09173164653131771 L 0.39648824695553675 0.0914499416391078 L 0.399320305862362 0.0912268336307801 L 0.40215236476918725 0.09106232250633484 L 0.4049844236760125 0.09095640826577178 L 0.40781648258283776 0.09090909090909105 L 0.41064854148966307 0.09092037043629253 L 0.4134806003964883 0.09099024684737633 L 0.41631265930331357 0.09111872014234235 L 0.4191447182101388 0.09130579032119068 L 0.4219767771169641 0.09155145738392123 L 0.4248088360237893 0.09185572133053421 L 0.4276408949306146 0.0922185821610294 L 0.4304729538374399 0.09264003987540681 L 0.43330501274426514 0.09312009447366654 L 0.4361370716510904 0.09365874595580859 L 0.43896913055791564 0.09425599432183285 L 0.4418011894647409 0.09491183957173943 L 0.44463324837156615 0.09562628170552823 L 0.44746530727839146 0.09639932072319934 L 0.4502973661852167 0.09723095662475267 L 0.45312942509204196 0.09812118941018844 L 0.4559614839988672 0.09907001907950641 L 0.45879354290569246 0.10007744563270671 L 0.4616256018125177 0.10114346906978922 L 0.464457660719343 0.10226808939075405 L 0.4672897196261683 0.10345130659560109 L 0.47012177853299353 0.10469312068433034 L 0.4729538374398188 0.10599353165694203 L 0.47578589634664403 0.10735253951343593 L 0.4786179552534693 0.10877014425381215 L 0.48145001416029454 0.11024634587807058 L 0.48428207306711984 0.11178114438621134 L 0.4871141319739451 0.11337453977823442 L 0.48994619088077035 0.11502653205413971 L 0.4927782497875956 0.11673712121392732 L 0.49561030869442085 0.11850630725759714 L 0.4984423676012461 0.12033409018514929 L 0.5012744265080714 0.12222046999658365 L 0.5041064854148967 0.12416544669190044 L 0.5069385443217219 0.12616902027109944 L 0.5097706032285472 0.12823119073418077 L 0.5126026621353724 0.1303519580811443 L 0.5154347210421977 0.13253132231199005 L 0.5182667799490229 0.13476928342671812 L 0.5210988388558482 0.13706584142532852 L 0.5239308977626734 0.13942099630782112 L 0.5267629566694987 0.14183474807419616 L 0.529595015576324 0.1443070967244533 L 0.5324270744831493 0.14683804225859287 L 0.5352591333899746 0.14942758467661466 L 0.5380911922967998 0.15207572397851865 L 0.540923251203625 0.15478246016430497 L 0.5437553101104503 0.1575477932339735 L 0.5465873690172756 0.16037172318752446 L 0.5494194279241008 0.16325425002495753 L 0.5522514868309261 0.16619537374627302 L 0.5550835457377513 0.16919509435147073 L 0.5579156046445766 0.17225341184055076 L 0.5607476635514018 0.17537032621351312 L 0.5635797224582271 0.17854583747035768 L 0.5664117813650524 0.18177994561108446 L 0.5692438402718777 0.18507265063569356 L 0.5720758991787029 0.18842395254418498 L 0.5749079580855282 0.19183385133655861 L 0.5777400169923534 0.19530234701281457 L 0.5805720758991787 0.19882943957295285 L 0.583404134806004 0.20241512901697334 L 0.5862361937128292 0.20605941534487626 L 0.5890682526196545 0.2097622985566614 L 0.5919003115264797 0.21352377865232863 L 0.594732370433305 0.2173438556318783 L 0.5975644293401302 0.22122252949531018 L 0.6003964882469556 0.22515980024262439 L 0.6032285471537808 0.2291556678738208 L 0.6060606060606061 0.23321013238889965 L 0.6088926649674313 0.2373231937878607 L 0.6117247238742566 0.24149485207070398 L 0.6145567827810818 0.24572510723742969 L 0.6173888416879071 0.2500139592880375 L 0.6202209005947323 0.2543614082225276 L 0.6230529595015576 0.25876745404090007 L 0.6258850184083828 0.26323209674315473 L 0.6287170773152081 0.2677553363292917 L 0.6315491362220333 0.272337172799311 L 0.6343811951288586 0.27697760615321254 L 0.637213254035684 0.2816766363909965 L 0.6400453129425092 0.28643426351266266 L 0.6428773718493345 0.2912504875182109 L 0.6457094307561597 0.2961253084076416 L 0.648541489662985 0.30105872618095453 L 0.6513735485698103 0.30605074083814976 L 0.6542056074766356 0.3111013523792272 L 0.6570376663834608 0.3162105608041871 L 0.6598697252902861 0.32137836611302917 L 0.6627017841971113 0.32660476830575347 L 0.6655338431039366 0.3318897673823601 L 0.6683659020107618 0.3372333633428489 L 0.6711979609175871 0.3426355561872201 L 0.6740300198244124 0.34809634591547345 L 0.6768620787312376 0.35361573252760925 L 0.6796941376380629 0.35919371602362726 L 0.6825261965448881 0.3648302964035276 L 0.6853582554517135 0.37052547366731015 L 0.6881903143585387 0.3762792478149749 L 0.691022373265364 0.382091618846522 L 0.6938544321721892 0.3879625867619514 L 0.6966864910790145 0.393892151561263 L 0.6995185499858397 0.39988031324445694 L 0.702350608892665 0.4059270718115332 L 0.7051826677994902 0.4120324272624918 L 0.7080147267063155 0.4181963795973326 L 0.7108467856131407 0.4244189288160557 L 0.713678844519966 0.430700074918661 L 0.7165109034267912 0.43703981790514856 L 0.7193429623336165 0.4434381577755184 L 0.7221750212404419 0.4498950945297706 L 0.7250070801472671 0.4564106281679051 L 0.7278391390540924 0.46298475868992184 L 0.7306711979609176 0.4696174860958209 L 0.7335032568677429 0.47630881038560224 L 0.7363353157745681 0.4830587315592658 L 0.7391673746813934 0.4898672496168116 L 0.7419994335882186 0.4967343645582397 L 0.7448314924950439 0.5036600763835501 L 0.7476635514018691 0.5106443850927428 L 0.7504956103086944 0.5176872906858178 L 0.7533276692155196 0.5247887931627749 L 0.7561597281223449 0.5319488925236144 L 0.7589917870291703 0.5391675887683363 L 0.7618238459359955 0.5464448818969403 L 0.7646559048428208 0.5537807719094267 L 0.767487963749646 0.5611752588057952 L 0.7703200226564713 0.5686283425860462 L 0.7731520815632965 0.5761400232501794 L 0.7759841404701218 0.5837103007981949 L 0.778816199376947 0.5913391752300926 L 0.7816482582837723 0.5990266465458727 L 0.7844803171905975 0.606772714745535 L 0.7873123760974228 0.6145773798290796 L 0.790144435004248 0.6224406417965064 L 0.7929764939110733 0.6303625006478155 L 0.7958085528178986 0.638342956383007 L 0.7986406117247239 0.6463820090020806 L 0.8014726706315491 0.6544796585050365 L 0.8043047295383744 0.6626359048918748 L 0.8071367884451996 0.6708507481625954 L 0.8099688473520249 0.6791241883171981 L 0.8128009062588502 0.6874562253556833 L 0.8156329651656754 0.6958468592780507 L 0.8184650240725007 0.7042960900843003 L 0.8212970829793259 0.7128039177744322 L 0.8241291418861512 0.7213703423484463 L 0.8269612007929764 0.7299953638063428 L 0.8297932596998017 0.7386789821481216 L 0.832625318606627 0.7474211973737825 L 0.8354573775134523 0.7562220094833259 L 0.8382894364202775 0.7650814184767515 L 0.8411214953271028 0.7739994243540593 L 0.843953554233928 0.7829760271152495 L 0.8467856131407533 0.7920112267603219 L 0.8496176720475785 0.8011050232892767 L 0.8524497309544038 0.8102574167021136 L 0.855281789861229 0.8194684069988328 L 0.8581138487680543 0.8287379941794344 L 0.8609459076748796 0.8380661782439183 L 0.8637779665817048 0.8474529591922844 L 0.8666100254885302 0.8568983370245327 L 0.8694420843953554 0.8664023117406633 L 0.8722741433021807 0.8759648833406762 L 0.8751062022090059 0.8855860518245715 L 0.8779382611158312 0.895265817192349 L 0.8807703200226564 0.9050041794440087 L 0.8836023789294817 0.9148011385795508 L 0.8864344378363069 0.9246566945989751 L 0.8892664967431322 0.9345708475022817 L 0.8920985556499574 0.9445435972894706 L 0.8949306145567827 0.9545749439605418 L 0.8977626734636079 0.9646648875154952 L 0.9005947323704332 0.9748134279543309 L 0.9034267912772586 0.9850205652770488 L 0.9062588501840838 0.9952862994836491 L 0.9090909090909091 1.0056106305741317"/>
</svg>